<?xml version="1.0" standalone="no"?>
<!DOCTYPE svg PUBLIC "-//W3C//DTD SVG 20010904//EN"
 "http://www.w3.org/TR/2001/REC-SVG-20010904/DTD/svg10.dtd">
<svg version="1.0" xmlns="http://www.w3.org/2000/svg"
 width="1024.000000pt" height="1024.000000pt" viewBox="0 0 1024.000000 1024.000000"
 preserveAspectRatio="xMidYMid meet">
<metadata>
Created by potrace 1.11, written by Peter Selinger 2001-2013
</metadata>
<g transform="translate(0.000000,1024.000000) scale(0.100000,-0.100000)"
fill="#000000" stroke="none">
<path d="M0 5120 l0 -5120 5120 0 5120 0 0 5120 0 5120 -5120 0 -5120 0 0
-5120z m4283 3673 c9 -38 20 -93 26 -123 6 -30 14 -66 17 -80 3 -14 7 -36 10
-50 2 -14 9 -45 14 -70 32 -152 60 -288 64 -310 3 -14 9 -47 15 -75 53 -253
96 -461 117 -565 14 -69 27 -134 30 -145 2 -11 7 -36 11 -55 4 -19 8 -37 8
-40 1 -3 4 -18 8 -35 4 -16 9 -41 11 -55 3 -14 7 -36 11 -50 3 -14 7 -34 9
-45 2 -11 16 -76 30 -145 14 -69 27 -136 30 -150 3 -14 14 -70 26 -125 12 -55
24 -111 26 -125 3 -14 18 -88 34 -165 16 -77 36 -176 45 -220 9 -44 22 -109
30 -145 8 -36 17 -76 19 -90 2 -14 9 -45 15 -70 5 -25 12 -56 15 -70 20 -107
97 -484 100 -489 2 -3 7 -24 10 -46 12 -75 17 -100 21 -116 6 -19 112 -532
127 -612 6 -32 12 -56 14 -54 3 2 9 29 14 58 5 30 16 86 25 124 9 39 17 81 19
95 2 14 9 48 16 75 6 28 14 61 17 75 2 14 11 59 19 100 8 41 17 86 20 100 2
14 13 66 24 115 11 50 22 106 25 125 3 19 10 51 15 70 8 34 55 259 64 310 5
31 36 180 82 400 19 91 37 179 40 195 3 17 10 50 15 75 6 25 13 56 15 70 5 25
52 258 60 295 2 11 7 34 10 50 2 17 9 46 14 65 10 37 17 74 26 130 3 19 9 51
14 70 9 33 34 155 44 210 5 27 33 164 72 350 14 63 29 138 34 165 5 28 11 59
14 70 2 11 22 110 45 220 23 110 44 211 47 225 2 14 9 48 14 75 6 28 13 61 16
75 3 14 7 36 10 50 14 66 64 308 69 328 l5 22 1170 0 1170 0 0 -3615 0 -3615
-729 0 -729 0 1 2745 c1 1510 0 2745 -3 2745 -3 0 -11 -28 -17 -62 -6 -35 -37
-187 -68 -338 -31 -151 -59 -284 -61 -295 -2 -11 -29 -141 -60 -290 -30 -148
-58 -281 -60 -295 -3 -14 -25 -122 -49 -240 -24 -118 -46 -226 -49 -240 -3
-14 -37 -180 -76 -370 -39 -190 -73 -356 -76 -370 -2 -14 -11 -56 -20 -95 -8
-38 -16 -79 -19 -90 -34 -172 -81 -404 -101 -493 -13 -63 -26 -128 -30 -145
-3 -18 -9 -50 -14 -72 -5 -22 -12 -56 -15 -75 -3 -19 -11 -55 -16 -80 -6 -25
-13 -56 -15 -70 -6 -31 -22 -112 -80 -390 -24 -118 -47 -228 -50 -245 -3 -16
-10 -50 -15 -75 -6 -25 -13 -56 -15 -70 -5 -25 -47 -230 -84 -405 -10 -49 -21
-103 -24 -120 -3 -16 -15 -75 -26 -130 -12 -55 -24 -111 -26 -125 -7 -36 -53
-261 -59 -288 l-5 -22 -660 0 c-619 0 -659 1 -664 18 -3 9 -39 188 -81 397
-43 209 -79 389 -81 400 -3 11 -11 52 -19 90 -8 39 -50 248 -95 465 -44 217
-96 472 -116 565 -19 94 -39 193 -45 220 -6 28 -12 61 -15 75 -3 14 -16 77
-29 140 -13 63 -26 129 -29 145 -10 52 -15 78 -30 150 -9 39 -18 81 -20 95 -2
14 -20 102 -40 195 -19 94 -37 181 -40 195 -2 14 -16 81 -30 150 -15 69 -28
134 -31 145 -2 11 -22 110 -44 220 -23 110 -60 290 -82 400 -64 315 -73 355
-164 800 -47 231 -88 431 -91 445 -2 14 -9 46 -15 71 -6 26 -11 54 -13 63 -1
8 -4 18 -7 20 -2 3 -4 -1220 -4 -2717 1 -1497 -1 -2728 -3 -2735 -3 -9 -159
-12 -732 -12 l-728 0 0 3615 0 3615 1173 0 1173 0 15 -67z"/>
</g>
</svg>
