<?xml version="1.0" encoding="utf-8"?>
<!-- Generator: Adobe Illustrator 22.1.0, SVG Export Plug-In . SVG Version: 6.00 Build 0)  -->
<svg version="1.2" baseProfile="tiny" id="Layer_1" xmlns="http://www.w3.org/2000/svg" xmlns:xlink="http://www.w3.org/1999/xlink"
	 x="0px" y="0px" viewBox="-49 141 512 512" xml:space="preserve">
<g fill="#ced9e0" transform="translate(1 1)">
	<path d="M120.667,583.733H35.333c-14.507,0-25.6-11.093-25.6-25.6v-179.2c0-14.507,11.093-25.6,25.6-25.6H88.24
		c6.827,0,13.653,2.56,17.92,7.68l32.427,32.427c5.12,5.12,7.68,11.093,7.68,17.92v146.773
		C146.267,572.64,135.173,583.733,120.667,583.733z M35.333,370.4c-5.12,0-8.533,3.413-8.533,8.533v179.2
		c0,5.12,3.413,8.533,8.533,8.533h85.333c5.12,0,8.533-3.413,8.533-8.533V411.36c0-2.56-0.853-4.267-2.56-5.973L94.213,372.96
		c-1.707-1.707-3.413-2.56-5.973-2.56H35.333z"/>
	<path d="M180.4,652H-24.4c-14.507,0-25.6-11.093-25.6-25.6V310.667c0-11.093,6.827-20.48,17.067-23.893v-27.307
		c0-14.507,11.093-25.6,25.6-25.6H9.733c14.507,0,25.6,11.093,25.6,25.6v25.6h70.827c11.093,0,22.187,4.267,29.867,12.8
		L193.2,355.04c7.68,7.68,12.8,18.773,12.8,29.867V626.4C206,640.907,194.907,652,180.4,652z M-7.333,250.933
		c-5.12,0-8.533,3.413-8.533,8.533V293.6c0,5.12-3.413,8.533-8.533,8.533s-8.533,3.413-8.533,8.533V626.4
		c0,5.12,3.413,8.533,8.533,8.533h204.8c5.12,0,8.533-3.413,8.533-8.533V384.907c0-6.827-2.56-13.653-7.68-17.92l0,0l-57.173-57.173
		c-5.12-5.12-11.093-7.68-17.92-7.68H26.8c-5.12,0-8.533-3.413-8.533-8.533v-34.133c0-5.12-3.413-8.533-8.533-8.533L-7.333,250.933
		L-7.333,250.933z"/>
	<path d="M291.333,430.133c-3.413,0-6.827,0-11.093-0.853c-24.747-5.12-41.813-28.16-40.107-53.76
		c0.853-8.533,3.413-16.213,8.533-23.04c9.387-11.947,16.213-25.6,22.187-38.4l11.947-24.747c1.707-2.56,4.267-5.12,7.68-5.12l0,0
		c3.413,0,5.973,1.707,7.68,5.12l15.36,30.72l0,0c5.12,10.24,11.093,19.627,17.067,29.013l4.267,6.827
		c4.267,6.827,6.827,14.507,6.827,22.187c0,15.36-6.827,29.867-18.773,40.107C314.373,425.867,303.28,430.133,291.333,430.133z
		 M291.333,312.373l-4.267,9.387c-6.827,13.653-14.507,28.16-23.893,41.813c-3.413,4.267-5.12,8.533-5.12,13.653
		c-0.853,17.067,10.24,32.427,26.453,35.84c10.24,2.56,20.48,0,29.013-6.827c7.68-6.827,12.8-16.213,12.8-26.453
		c0-5.12-0.853-9.387-4.267-13.653l-5.12-7.68c-5.973-10.24-12.8-19.627-17.92-30.72L291.333,312.373z"/>
	<path d="M86.533,438.667h-25.6c-5.12,0-8.533-3.413-8.533-8.533c0-5.12,3.413-8.533,8.533-8.533h25.6
		c5.12,0,8.533,3.413,8.533,8.533C95.067,435.253,91.653,438.667,86.533,438.667z"/>
	<path d="M86.533,481.333h-25.6c-5.12,0-8.533-3.413-8.533-8.533s3.413-8.533,8.533-8.533h25.6c5.12,0,8.533,3.413,8.533,8.533
		S91.653,481.333,86.533,481.333z"/>
	<path d="M86.533,524h-25.6c-5.12,0-8.533-3.413-8.533-8.533c0-5.12,3.413-8.533,8.533-8.533h25.6c5.12,0,8.533,3.413,8.533,8.533
		C95.067,520.587,91.653,524,86.533,524z"/>
	<path d="M419.333,652H180.4c-5.12,0-8.533-3.413-8.533-8.533s3.413-8.533,8.533-8.533c5.12,0,8.533-3.413,8.533-8.533V384.907
		c0-6.827-2.56-13.653-7.68-17.92l-57.173-57.173l-0.853-0.853c-1.707-1.707-2.56-4.267-2.56-6.827v-68.267
		c0-23.893,18.773-42.667,42.667-42.667v-25.6c0-14.507,11.093-25.6,25.6-25.6h34.133c14.507,0,25.6,11.093,25.6,25.6v25.6h104.96
		c11.093,0,22.187,4.267,29.867,12.8l65.707,65.707c7.68,7.68,12.8,18.773,12.8,29.867v309.76C462,633.227,443.227,652,419.333,652z
		 M204.293,634.933h215.04c14.507,0,25.6-11.093,25.6-25.6v-309.76c0-6.827-2.56-13.653-7.68-17.92l0,0l-65.707-65.707
		c-4.267-5.12-11.093-7.68-17.92-7.68H240.133c-5.12,0-8.533-3.413-8.533-8.533V165.6c0-5.12-3.413-8.533-8.533-8.533h-34.133
		c-5.12,0-8.533,3.413-8.533,8.533v34.133c0,5.12-3.413,8.533-8.533,8.533h-8.533c-14.507,0-25.6,11.093-25.6,25.6v64.853
		l55.467,55.467c7.68,7.68,12.8,18.773,12.8,29.867V626.4C206,629.813,205.147,632.373,204.293,634.933z"/>
	<path d="M385.2,600.8H214.533c-14.507,0-25.6-11.093-25.6-25.6V377.227c0-2.56-0.853-4.267-2.56-5.973l-6.827-6.827
		c-5.12-5.12-7.68-11.093-7.68-17.92V268c0-14.507,11.093-25.6,25.6-25.6h135.68c11.093,0,22.187,4.267,29.867,12.8L398,290.187
		c7.68,7.68,12.8,18.773,12.8,29.867V575.2C410.8,589.707,399.707,600.8,385.2,600.8z M197.467,259.467
		c-5.12,0-8.533,3.413-8.533,8.533v78.507c0,2.56,0.853,4.267,2.56,5.973l6.827,6.827c5.12,5.12,7.68,11.093,7.68,17.92V575.2
		c0,5.12,3.413,8.533,8.533,8.533H385.2c5.12,0,8.533-3.413,8.533-8.533V320.053c0-6.827-2.56-13.653-7.68-17.92l-34.987-34.987
		c-5.12-5.12-11.093-7.68-17.92-7.68H197.467z"/>
	<path d="M334,481.333h-85.333c-5.12,0-8.533-3.413-8.533-8.533s3.413-8.533,8.533-8.533H334c5.12,0,8.533,3.413,8.533,8.533
		S339.12,481.333,334,481.333z"/>
	<path d="M351.067,524H231.6c-5.12,0-8.533-3.413-8.533-8.533c0-5.12,3.413-8.533,8.533-8.533h119.467
		c5.12,0,8.533,3.413,8.533,8.533C359.6,520.587,356.187,524,351.067,524z"/>
</g>
</svg>
