<svg xmlns="http://www.w3.org/2000/svg" viewBox="-31.8 158.2 477.6 477.6">
  <style>
    path {
      fill: #d4dee4;
    }
  </style>
  <path d="M-26 365.5a8 8 0 0 0-5.8 7.7v47.6a8 8 0 0 0 5.8 7.7l28.8 8c1.9 9.7 4.4 19.2 7.6 28.4l-20.8 21.3a8 8 0 0 0-1.6 8.9c6.7 15 15 29.3 24.6 42.6a8 8 0 0 0 8.5 3l28.8-7.4c6.4 7.4 13.4 14.4 20.7 20.8l-7.3 28.8a8 8 0 0 0 3 8.5A240 240 0 0 0 109 616a8 8 0 0 0 8.8-1.6l21.4-20.8c9.2 3.2 18.7 5.7 28.3 7.6l8 28.8a8 8 0 0 0 7.8 5.8h47.6a8 8 0 0 0 7.7-5.8l8-28.8c9.7-1.9 19.2-4.4 28.4-7.6l21.3 20.8a8 8 0 0 0 8.9 1.6 240 240 0 0 0 42.6-24.6 8 8 0 0 0 3-8.5l-7.4-28.8c7.4-6.4 14.4-13.4 20.8-20.7l28.8 7.3a8 8 0 0 0 8.5-3A239.9 239.9 0 0 0 426 495a8 8 0 0 0-1.6-8.9L403.6 465c3.2-9.2 5.7-18.7 7.6-28.3l28.8-8a8 8 0 0 0 5.8-7.8v-47.6a8 8 0 0 0-5.8-7.7l-28.8-8a206 206 0 0 0-7.6-28.4l20.8-21.3a8 8 0 0 0 1.6-8.9 240 240 0 0 0-24.6-42.6 8 8 0 0 0-8.5-3l-28.8 7.4a209.3 209.3 0 0 0-20.8-20.8l7.4-28.8a8 8 0 0 0-3-8.5A240 240 0 0 0 305 178a8 8 0 0 0-8.9 1.6L275 200.4c-9.2-3.2-18.7-5.7-28.3-7.6l-8-28.8a8 8 0 0 0-7.8-5.8h-47.6a8 8 0 0 0-7.7 5.8l-8 28.8a206 206 0 0 0-28.4 7.6l-21.3-20.8a8 8 0 0 0-8.9-1.6c-15 6.7-29.3 15-42.6 24.6a8 8 0 0 0-3 8.5l7.4 28.8a209.3 209.3 0 0 0-20.8 20.7l-28.8-7.3a8 8 0 0 0-8.5 3A240 240 0 0 0-12 299a8 8 0 0 0 1.6 8.8l20.8 21.4c-3.2 9.2-5.7 18.7-7.6 28.3l-28.8 8zm51.3-44L5 300.5c5-10.6 10.9-20.7 17.5-30.4l28.4 7.3a8 8 0 0 0 8.2-2.7c7.7-9.4 16.4-18 25.7-25.7a8 8 0 0 0 2.7-8.2l-7.3-28.4c9.7-6.6 19.9-12.5 30.4-17.5l21 20.4a8 8 0 0 0 8.4 1.8c11.4-4.3 23.2-7.4 35.2-9.4a8 8 0 0 0 6.4-5.7l7.8-27.8h35.4l7.8 27.8a8 8 0 0 0 6.4 5.7c12 2 23.8 5.1 35.2 9.4a8 8 0 0 0 8.4-1.8l21-20.4c10.5 5 20.7 10.9 30.4 17.5l-7.3 28.4a8 8 0 0 0 2.7 8.2c9.3 7.7 18 16.4 25.7 25.7a8 8 0 0 0 8.2 2.7l28.4-7.3c6.6 9.7 12.5 19.9 17.5 30.4l-20.4 21a8 8 0 0 0-1.8 8.4c4.3 11.4 7.4 23.2 9.4 35.2a8 8 0 0 0 5.7 6.4l27.8 7.8v35.4l-27.8 7.8a8 8 0 0 0-5.7 6.4c-2 12-5.1 23.8-9.4 35.2a8 8 0 0 0 1.8 8.4l20.4 21c-5 10.6-10.9 20.7-17.5 30.4l-28.4-7.3a8 8 0 0 0-8.2 2.7c-7.7 9.4-16.4 18-25.7 25.7a8 8 0 0 0-2.7 8.2l7.3 28.4a223.8 223.8 0 0 1-30.4 17.5l-21-20.4a8 8 0 0 0-8.4-1.8 191.5 191.5 0 0 1-35.2 9.4 8 8 0 0 0-6.4 5.7l-7.8 27.8h-35.4l-7.8-27.8a8 8 0 0 0-6.4-5.7c-12-2-23.8-5.1-35.2-9.4a8 8 0 0 0-8.4 1.8l-21 20.4c-10.6-5-20.7-10.9-30.4-17.5l7.3-28.4a8 8 0 0 0-2.7-8.2c-9.4-7.7-18-16.4-25.7-25.7a8 8 0 0 0-8.2-2.7l-28.4 7.3A224.6 224.6 0 0 1 5 493.5l20.4-21a8 8 0 0 0 1.8-8.4 190.9 190.9 0 0 1-9.4-35.2 8 8 0 0 0-5.7-6.4l-27.8-7.8v-35.4l27.8-7.8a8 8 0 0 0 5.7-6.4c2-12 5.1-23.8 9.4-35.2a8 8 0 0 0-1.8-8.4z"/>
  <path d="M207 557a160 160 0 1 0 0-320 160 160 0 0 0 0 320zM63.4 389a143.2 143.2 0 0 1 36.4-87.8l16.7 16.6 11.3-11.3-16.6-16.7a143.2 143.2 0 0 1 87.8-36.4V277h16v-23.6a143.2 143.2 0 0 1 87.8 36.4l-16.6 16.7 11.3 11.3 16.7-16.6a143.2 143.2 0 0 1 36.4 87.8H327v16h23.6a143.2 143.2 0 0 1-36.4 87.8l-16.7-16.6-11.3 11.3 16.6 16.7a143.2 143.2 0 0 1-87.8 36.4V517h-16v23.6a143.2 143.2 0 0 1-87.8-36.4l16.6-16.7-11.3-11.3-16.7 16.6A143.2 143.2 0 0 1 63.4 405H87v-16H63.4z"/>
  <path d="M207 429a32 32 0 0 0 32-33.5l38.7-58a8 8 0 0 0-11.1-11.2l-58.1 38.8-1.5-.1a32 32 0 0 0 0 64zm0-48c.8 0 1.5.1 2.3.3 2 .3 4-.2 5.6-1.3l27.2-18.1L224 389a8.5 8.5 0 0 0-1.2 5.8l.2 2.1a16 16 0 1 1-16-16z"/>
</svg>