<?xml version="1.0" encoding="utf-8"?>
<!-- Generator: Adobe Illustrator 22.1.0, SVG Export Plug-In . SVG Version: 6.00 Build 0)  -->
<svg version="1.2" baseProfile="tiny" id="Layer_1" xmlns="http://www.w3.org/2000/svg" xmlns:xlink="http://www.w3.org/1999/xlink"
	 x="0px" y="0px" viewBox="-49 141 512 512" xml:space="preserve">
<g fill="#ced9e0" transform="translate(1 1)">
	<path d="M163.333,609.333H26.8c-5.12,0-8.533-3.413-8.533-8.533v-85.333c0-5.12,3.413-8.533,8.533-8.533h136.533
		c5.12,0,8.533,3.413,8.533,8.533V600.8C171.867,605.92,168.453,609.333,163.333,609.333z M35.333,592.267H154.8V524H35.333V592.267
		z"/>
	<path d="M60.933,652c-5.12,0-8.533-3.413-8.533-8.533V600.8c0-5.12,3.413-8.533,8.533-8.533s8.533,3.413,8.533,8.533v42.667
		C69.467,648.587,66.053,652,60.933,652z"/>
	<path d="M129.2,652c-5.12,0-8.533-3.413-8.533-8.533V600.8c0-5.12,3.413-8.533,8.533-8.533c5.12,0,8.533,3.413,8.533,8.533v42.667
		C137.733,648.587,134.32,652,129.2,652z"/>
	<path d="M223.067,524h-256c-5.12,0-8.533-3.413-8.533-8.533v-34.133c0-5.12,3.413-8.533,8.533-8.533h25.6v-17.067
		c0-5.12,3.413-8.533,8.533-8.533h187.733c5.12,0,8.533,3.413,8.533,8.533V472.8h25.6c5.12,0,8.533,3.413,8.533,8.533v34.133
		C231.6,520.587,228.187,524,223.067,524z M-24.4,506.933h238.933v-17.067h-25.6c-5.12,0-8.533-3.413-8.533-8.533v-17.067H9.733
		v17.067c0,5.12-3.413,8.533-8.533,8.533h-25.6V506.933z"/>
	<path d="M163.333,464.267H26.8c-5.12,0-8.533-3.413-8.533-8.533v-51.2c0-5.12,3.413-8.533,8.533-8.533h136.533
		c5.12,0,8.533,3.413,8.533,8.533v51.2C171.867,460.853,168.453,464.267,163.333,464.267z M35.333,447.2H154.8v-34.133H35.333V447.2
		z"/>
	<path d="M146.267,413.067h-102.4c-5.12,0-8.533-3.413-8.533-8.533V216.8c0-5.12,3.413-8.533,8.533-8.533h102.4
		c5.12,0,8.533,3.413,8.533,8.533v187.733C154.8,409.653,151.387,413.067,146.267,413.067z M52.4,396h85.333V225.333H52.4V396z"/>
	<path d="M146.267,225.333h-102.4c-5.12,0-8.533-3.413-8.533-8.533c0-5.12,3.413-8.533,8.533-8.533h102.4
		c5.12,0,8.533,3.413,8.533,8.533C154.8,221.92,151.387,225.333,146.267,225.333z"/>
	<path d="M146.267,225.333c-5.12,0-8.533-3.413-8.533-8.533c0-16.213-6.827-25.6-8.533-25.6h-17.067
		c-5.12,0-8.533-3.413-8.533-8.533v-25.6H86.533v25.6c0,5.12-3.413,8.533-8.533,8.533H60.933c-1.707,0-8.533,9.387-8.533,25.6
		c0,5.12-3.413,8.533-8.533,8.533s-8.533-3.413-8.533-8.533c0-24.747,11.093-42.667,25.6-42.667h8.533v-17.067
		c0-9.387,7.68-17.067,17.067-17.067H103.6c9.387,0,17.067,7.68,17.067,17.067v17.067h8.533c14.507,0,25.6,17.92,25.6,42.667
		C154.8,221.92,151.387,225.333,146.267,225.333z"/>
	<path d="M402.267,583.733h-102.4c-5.12,0-8.533-3.413-8.533-8.533V455.733c0-5.12,3.413-8.533,8.533-8.533h102.4
		c5.12,0,8.533,3.413,8.533,8.533V575.2C410.8,580.32,407.387,583.733,402.267,583.733z M308.4,566.667h85.333v-102.4H308.4V566.667
		z"/>
	<path d="M351.067,617.867c-26.453,0-51.2-17.067-58.88-40.107c-0.853-2.56-0.853-5.12,0.853-7.68
		c1.707-2.56,4.267-3.413,6.827-3.413h102.4c2.56,0,5.12,1.707,6.827,3.413c1.707,2.56,1.707,5.12,0.853,7.68
		C402.267,600.8,377.52,617.867,351.067,617.867z M314.373,583.733c8.533,10.24,22.187,17.067,36.693,17.067
		s28.16-6.827,36.693-17.067H314.373z"/>
	<path d="M299.867,464.267c-2.56,0-4.267-0.853-5.973-2.56s-2.56-3.413-2.56-5.973c0-19.627-6.827-39.253-19.627-55.467
		c-17.067-21.333-25.6-48.64-22.187-76.8c5.12-46.933,43.52-84.48,89.6-89.6c29.013-3.413,58.027,5.973,80.213,25.6
		c21.333,19.627,34.133,46.933,34.133,75.947c0,23.893-8.533,46.933-23.04,64.853c-12.8,15.36-19.627,34.133-19.627,54.613
		c0,5.12-3.413,8.533-8.533,8.533L299.867,464.267z M308.4,447.2h85.333c1.707-20.48,9.387-40.96,23.04-57.173
		c12.8-15.36,19.627-34.133,19.627-53.76c0-23.893-10.24-47.787-28.16-64c-17.92-16.213-41.813-23.893-66.56-21.333
		c-39.253,4.267-70.827,35.84-75.093,75.093c-2.56,23.04,4.267,46.08,18.773,64C298.16,406.24,306.693,426.72,308.4,447.2z"/>
	<path d="M351.067,464.267c-5.12,0-8.533-3.413-8.533-8.533v-153.6c0-5.12,3.413-8.533,8.533-8.533s8.533,3.413,8.533,8.533v153.6
		C359.6,460.853,356.187,464.267,351.067,464.267z"/>
	<path d="M402.267,310.667h-102.4c-5.12,0-8.533-3.413-8.533-8.533c0-5.12,3.413-8.533,8.533-8.533h102.4
		c5.12,0,8.533,3.413,8.533,8.533C410.8,307.253,407.387,310.667,402.267,310.667z"/>
	<path d="M393.733,344.8H308.4c-5.12,0-8.533-3.413-8.533-8.533c0-5.12,3.413-8.533,8.533-8.533h85.333
		c5.12,0,8.533,3.413,8.533,8.533C402.267,341.387,398.853,344.8,393.733,344.8z"/>
	<path d="M376.667,378.933h-51.2c-5.12,0-8.533-3.413-8.533-8.533c0-5.12,3.413-8.533,8.533-8.533h51.2
		c5.12,0,8.533,3.413,8.533,8.533C385.2,375.52,381.787,378.933,376.667,378.933z"/>
</g>
</svg>
