<?xml version="1.0" encoding="utf-8"?>
<!-- Generator: Adobe Illustrator 22.1.0, SVG Export Plug-In . SVG Version: 6.00 Build 0)  -->
<svg version="1.2" baseProfile="tiny" id="Layer_1" xmlns="http://www.w3.org/2000/svg" xmlns:xlink="http://www.w3.org/1999/xlink"
	 x="0px" y="0px" viewBox="-49 141 512 512" xml:space="preserve">
<g fill="#ced9e0" transform="translate(1 1)">
	<path d="M283.653,600.8H128.347c-31.573,0-61.44-11.947-84.48-34.133c-5.973-5.12-8.533-12.8-8.533-20.48
		c0-7.68,3.413-15.36,8.533-20.48c12.8-11.947,23.04-18.773,34.987-23.893c3.413-1.707,7.68-0.853,10.24,2.56c0,0,0,0,0,0.853
		c15.36,17.92,34.987,28.16,55.467,28.16h122.027c20.48,0,40.107-10.24,55.467-29.013c2.56-3.413,6.827-4.267,10.24-3.413
		c11.947,5.12,22.187,12.8,34.987,23.893c5.973,5.12,8.533,12.8,8.533,20.48c0,7.68-3.413,15.36-8.533,20.48
		C344.24,588.853,314.373,600.8,283.653,600.8z M80.56,518.88c-7.68,4.267-15.36,10.24-23.893,17.92
		c-2.56,1.707-3.413,5.12-3.413,8.533c0,3.413,1.707,5.973,3.413,8.533c20.48,18.773,46.08,29.013,72.533,29.013h154.453
		c26.453,0,52.907-10.24,72.533-29.013c2.56-1.707,3.413-5.12,3.413-8.533c0-3.413-1.707-5.973-3.413-8.533l0,0
		c-8.533-8.533-16.213-13.653-23.893-17.92c-17.92,19.627-40.96,30.72-64.853,30.72H144.56C121.52,549.6,98.48,538.507,80.56,518.88
		z"/>
	<path d="M114.693,652C77.147,652,43.013,640.907,14,619.573c-8.533-5.973-12.8-15.36-12.8-24.747c0-9.387,5.12-18.773,12.8-24.747
		c10.24-7.68,20.48-13.653,31.573-17.92c3.413-1.707,7.68-0.853,9.387,2.56l0.853,0.853c19.627,18.773,45.227,29.013,72.533,29.013
		H282.8c26.453,0,52.907-10.24,72.533-29.013c2.56-2.56,6.827-4.267,10.24-2.56c11.093,5.12,21.333,10.24,31.573,17.92
		c8.533,5.973,12.8,15.36,12.8,24.747s-5.12,18.773-12.8,24.747C368.133,641.76,334,652.853,295.6,652.853H115.547
		C115.547,652,115.547,652,114.693,652z M47.28,570.08c-7.68,3.413-15.36,8.533-23.04,13.653c-3.413,2.56-5.973,6.827-5.973,11.093
		s2.56,8.533,5.973,11.093c26.453,19.627,57.173,29.013,91.307,29.013h180.907c34.133,0,64.853-9.387,91.307-29.013
		c4.267-2.56,5.973-6.827,5.973-11.093s-2.56-8.533-5.973-11.093l0,0c-7.68-5.973-14.507-10.24-23.04-13.653
		c-23.04,20.48-51.2,30.72-81.067,30.72H128.347C98.48,600.8,70.32,589.707,47.28,570.08z"/>
	<path d="M224.773,498.4h-38.4c-8.533,0-16.213-3.413-22.187-10.24c-5.973-5.973-8.533-14.507-7.68-23.04l4.267-42.667
		c1.707-15.36,14.507-27.307,29.867-27.307h29.867c15.36,0,28.16,11.947,29.867,27.307l4.267,42.667
		c0.853,8.533-1.707,17.067-7.68,23.04C240.987,494.133,233.307,498.4,224.773,498.4z M191.493,413.067
		c-6.827,0-11.947,5.12-12.8,11.947l-4.267,42.667c0,3.413,0.853,6.827,3.413,10.24c2.56,3.413,5.973,4.267,9.387,4.267h38.4
		c3.413,0,6.827-1.707,9.387-4.267s3.413-5.973,3.413-10.24l-4.267-42.667c-0.853-6.827-5.973-11.947-12.8-11.947L191.493,413.067
		L191.493,413.067z"/>
	<path d="M267.44,549.6H144.56c-25.6,0-49.493-11.947-68.267-34.987c-4.267-5.12-6.827-11.947-6.827-19.627
		c0-7.68,2.56-14.507,6.827-20.48c10.24-11.947,20.48-20.48,32.427-26.453c0,0,0,0,0.853,0c14.507-7.68,34.133-12.8,58.027-16.213
		c2.56,0,5.12,0.853,6.827,2.56c1.707,1.707,2.56,4.267,2.56,6.827l-2.56,25.6c0,3.413,0.853,6.827,3.413,10.24
		c2.56,2.56,5.973,4.267,9.387,4.267h38.4c3.413,0,6.827-1.707,9.387-4.267c2.56-2.56,3.413-5.973,3.413-10.24l-2.56-25.6
		c0-2.56,0.853-5.12,2.56-6.827c1.707-1.707,4.267-2.56,6.827-2.56c23.893,3.413,43.52,8.533,58.027,16.213c0,0,0,0,0.853,0
		c11.947,5.973,22.187,13.653,32.427,25.6c4.267,5.12,6.827,12.8,6.827,20.48c0,7.68-2.56,14.507-6.827,20.48
		C316.933,537.653,292.187,549.6,267.44,549.6z M115.547,464.267c-9.387,5.12-17.92,11.093-26.453,21.333
		c-1.707,2.56-2.56,5.973-2.56,9.387c0,3.413,0.853,6.827,2.56,9.387c15.36,18.773,34.987,29.013,55.467,29.013h122.027
		c20.48,0,40.107-10.24,55.467-29.013c1.707-2.56,2.56-5.973,2.56-9.387c0-3.413-0.853-6.827-2.56-9.387l0,0
		c-8.533-10.24-16.213-16.213-25.6-21.333c-0.853,0-0.853,0-0.853-0.853c-10.24-5.12-24.747-10.24-41.813-12.8l1.707,14.507
		c0.853,8.533-1.707,17.067-7.68,23.04c-5.973,5.973-13.653,10.24-22.187,10.24h-38.4c-8.533,0-16.213-3.413-22.187-10.24
		c-5.973-5.973-8.533-14.507-7.68-23.04l1.707-14.507c-17.067,2.56-31.573,7.68-41.813,12.8
		C116.4,464.267,116.4,464.267,115.547,464.267z"/>
	<path d="M206,276.533c-37.547,0-68.267-30.72-68.267-68.267S168.453,140,206,140s68.267,30.72,68.267,68.267
		S243.547,276.533,206,276.533z M206,157.067c-28.16,0-51.2,23.04-51.2,51.2s23.04,51.2,51.2,51.2s51.2-23.04,51.2-51.2
		S234.16,157.067,206,157.067z"/>
	<path d="M206,413.067c-5.12,0-8.533-3.413-8.533-8.533V268c0-5.12,3.413-8.533,8.533-8.533c5.12,0,8.533,3.413,8.533,8.533v136.533
		C214.533,409.653,211.12,413.067,206,413.067z"/>
	<path d="M188.933,242.4c-5.12,0-8.533-3.413-8.533-8.533v-51.2c0-5.12,3.413-8.533,8.533-8.533c5.12,0,8.533,3.413,8.533,8.533
		v51.2C197.467,238.987,194.053,242.4,188.933,242.4z"/>
	<path d="M223.067,242.4c-5.12,0-8.533-3.413-8.533-8.533v-51.2c0-5.12,3.413-8.533,8.533-8.533c5.12,0,8.533,3.413,8.533,8.533
		v51.2C231.6,238.987,228.187,242.4,223.067,242.4z"/>
	<path d="M223.067,216.8h-34.133c-5.12,0-8.533-3.413-8.533-8.533c0-5.12,3.413-8.533,8.533-8.533h34.133
		c5.12,0,8.533,3.413,8.533,8.533C231.6,213.387,228.187,216.8,223.067,216.8z"/>
</g>
</svg>
