<svg xmlns="http://www.w3.org/2000/svg" version="1.2" viewBox="0 0 512 512">
  <path d="M255.1 74c-100.3 0-182 81.6-182 182s81.7 182 182 182c100.4 0 182-81.6 182-182s-81.6-182-182-182zm0 344c-89.3 0-162-72.7-162-162s72.7-162 162-162 162 72.7 162 162-72.7 162-162 162zm0 0" fill="#d4dee4"/>
  <path d="M255.1 122A134.2 134.2 0 0 0 212 382.9a10 10 0 1 0 6.4-19 114 114 0 1 1 73.6 0 10 10 0 1 0 6.4 19A134 134 0 0 0 255.1 122zm0 0" fill="#d4dee4"/>
  <path d="M339.5 235.3c4-4 4-10.3 0-14.2l-35.8-35.8c-4-4-10.3-4-14.2 0L241 233.8l-20.3-20.3a10 10 0 0 0-14.1 0l-35.9 35.9a10 10 0 0 0 0 14.1l63.2 63.2a10 10 0 0 0 14.2 0zM192 256.4l21.7-21.7L234 255a10 10 0 0 0 14.2 0l48.5-48.5 21.7 21.7-77.3 77.3-49-49zM255.1 370a10 10 0 0 0-10 10 10 10 0 0 0 10 10 10 10 0 0 0 10-10 10 10 0 0 0-10-10zm0 0" fill="#d4dee4"/>
  <path d="M354.5 456.7a53.8 53.8 0 0 0 60.8-44.1 73.4 73.4 0 0 1 38.2-52.6 53.8 53.8 0 0 0 23.2-71.5 73.5 73.5 0 0 1 0-65 53.8 53.8 0 0 0-23.2-71.5 73.6 73.6 0 0 1-38.2-52.6 53.8 53.8 0 0 0-60.8-44.1 73.5 73.5 0 0 1-61.8-20.1 53.8 53.8 0 0 0-75.1 0 73.5 73.5 0 0 1-61.9 20A53.8 53.8 0 0 0 95 99.5 73.5 73.5 0 0 1 56.7 152a53.8 53.8 0 0 0-23.2 71.5 73.5 73.5 0 0 1 0 65A53.8 53.8 0 0 0 56.7 360 73.5 73.5 0 0 1 95 412.6a53.8 53.8 0 0 0 60.8 44.1 73.5 73.5 0 0 1 61.8 20 53.8 53.8 0 0 0 75.2.1 73 73 0 0 1 61.8-20z" fill="none"/>
  <path d="M351.7 476.5A73.7 73.7 0 0 0 435 416a53.7 53.7 0 0 1 27.9-38.4 73.7 73.7 0 0 0 31.8-97.9 53.7 53.7 0 0 1 0-47.4 73.6 73.6 0 0 0-31.8-98 53.7 53.7 0 0 1-28-38.3 73.7 73.7 0 0 0-83.2-60.5c-16.6 2.3-33-3-45.1-14.7a73.7 73.7 0 0 0-103 0 53.7 53.7 0 0 1-45 14.7A73.7 73.7 0 0 0 75.1 96a53.7 53.7 0 0 1-27.8 38.4 73.6 73.6 0 0 0-31.9 97.9c7.4 15 7.4 32.3 0 47.4a73.6 73.6 0 0 0 31.9 98A53.7 53.7 0 0 1 75.2 416a73.7 73.7 0 0 0 83.3 60.5 54 54 0 0 1 45.2 14.7 73.7 73.7 0 0 0 102.9 0c12-11.7 28.5-17 45.1-14.7zm-134.1.3a73.5 73.5 0 0 0-61.9-20A53.8 53.8 0 0 1 95 412.5 73.5 73.5 0 0 0 56.7 360a53.8 53.8 0 0 1-23.2-71.5 73.5 73.5 0 0 0 0-65A53.8 53.8 0 0 1 56.7 152 73.5 73.5 0 0 0 95 99.4a53.8 53.8 0 0 1 60.8-44.1 73.5 73.5 0 0 0 61.9-20.1c21-20.4 54-20.4 75 0a73.6 73.6 0 0 0 62 20 53.8 53.8 0 0 1 60.7 44.2 73.6 73.6 0 0 0 38.2 52.6 53.8 53.8 0 0 1 23.2 71.5 73.5 73.5 0 0 0 0 65 53.8 53.8 0 0 1-23.2 71.5 73.6 73.6 0 0 0-38.2 52.6 53.8 53.8 0 0 1-60.8 44.1 73.5 73.5 0 0 0-61.8 20.1 53.8 53.8 0 0 1-75.1 0z" fill="#d4dee4"/>
</svg>