<?xml version="1.0" encoding="utf-8"?>
<!-- Generator: Adobe Illustrator 22.1.0, SVG Export Plug-In . SVG Version: 6.00 Build 0)  -->
<svg version="1.2" baseProfile="tiny" id="Capa_1" xmlns="http://www.w3.org/2000/svg" xmlns:xlink="http://www.w3.org/1999/xlink"
	 x="0px" y="0px" viewBox="-49 141 512 512" xml:space="preserve">
<path fill="#ced9e0" d="M448.12,572.048l-46.152-46.152h-21.904l-100.4-100.4c0.016-0.376,0.112-0.744,0.112-1.128c0-6.272-2.448-12.168-6.88-16.6
	L262.12,397l10.768-10.768c4.864-4.864,7.064-11.336,6.768-17.72l17.328-17.328l-11.312-11.312l-12.96,12.96l-21.544-21.544
	l92.728-92.736l21.544,21.544l-67.24,67.248l11.312,11.312l70.552-70.552h21.904l46.16-46.152c9.152-9.16,9.152-24.056,0-33.216
	l-32.856-32.856c-9.168-9.152-24.064-9.152-33.216,0l-46.152,46.152v21.904L235.488,324.352c-6.384-0.304-12.856,1.904-17.72,6.76
	L207,341.88l-10.768-10.768c-4.856-4.856-11.336-7.064-17.712-6.76L78.104,223.936v-21.904l-46.152-46.16
	c-9.168-9.152-24.064-9.152-33.216,0l-32.864,32.864c-9.152,9.16-9.152,24.056,0,33.216l46.152,46.152h21.904l100.416,100.408
	c-0.304,6.384,1.896,12.856,6.76,17.72L151.88,397l-10.768,10.776c-4.44,4.432-6.88,10.328-6.88,16.6
	c0,0.384,0.088,0.744,0.112,1.128l-100.4,100.4H12.032l-46.152,46.144c-9.16,9.16-9.16,24.064,0,33.216l32.848,32.848
	C3.168,642.552,9.072,645,15.344,645s12.176-2.448,16.608-6.88l46.152-46.152v-21.904l100.408-100.408
	c0.368,0.016,0.736,0.104,1.112,0.104c6.016,0,12.032-2.288,16.608-6.864L207,452.12l10.768,10.768
	c4.584,4.576,10.592,6.864,16.608,6.864c0.368,0,0.736-0.088,1.104-0.104l100.416,100.408v21.904l46.144,46.152
	c4.44,4.44,10.336,6.88,16.616,6.88s12.176-2.448,16.608-6.88l32.856-32.848c4.44-4.44,6.88-10.336,6.88-16.608
	S452.56,576.488,448.12,572.048z M393.36,167.192c2.92-2.92,7.672-2.92,10.592,0l32.848,32.856c2.92,2.92,2.92,7.672,0,10.592
	l-41.464,41.464h-15.28l-28.168-28.168v-15.28L393.36,167.192z M162.832,331.288l-21.544,21.544L48.56,260.104l21.544-21.544
	L162.832,331.288z M-22.808,210.64c-2.92-2.92-2.92-7.672,0-10.592L10.048,167.2c2.92-2.92,7.672-2.92,10.592,0l41.464,41.464v15.28
	l-28.168,28.168h-15.28L-22.808,210.64z M20.64,626.808c-2.832,2.832-7.752,2.832-10.592,0l-32.856-32.848
	c-2.92-2.92-2.92-7.672,0-10.592l41.464-41.464h15.28l28.168,28.168v15.28L20.64,626.808z M70.104,555.44L48.56,533.904
	l92.736-92.728l21.536,21.544L70.104,555.44z M207.176,429.68L207,429.856l-0.184-0.184l-21.904,21.904
	c-2.92,2.92-7.672,2.92-10.592,0l-21.904-21.904c-1.416-1.416-2.192-3.296-2.192-5.296c0-1.992,0.784-3.872,2.192-5.288
	l21.904-21.904L174.144,397l0.176-0.176l-21.904-21.904c-2.92-2.92-2.92-7.672,0-10.592l21.904-21.904
	c2.92-2.92,7.672-2.92,10.592,0l21.904,21.904l0.184-0.184l0.176,0.176l21.904-21.904c2.92-2.92,7.672-2.92,10.592,0l21.904,21.904
	c2.92,2.92,2.92,7.672,0,10.592l-21.904,21.904l0.184,0.184l-0.176,0.176l21.904,21.904c1.416,1.416,2.192,3.296,2.192,5.288
	c0,2-0.784,3.88-2.192,5.296l-21.904,21.904c-2.92,2.92-7.672,2.92-10.592,0L207.176,429.68z M251.168,462.712l21.536-21.544
	l92.736,92.728l-21.544,21.536L251.168,462.712z M436.808,593.952L403.952,626.8c-2.832,2.832-7.752,2.832-10.592,0l-41.464-41.464
	v-15.28l28.168-28.168h15.28l41.464,41.464C439.728,586.28,439.728,591.032,436.808,593.952z"/>
</svg>
