<svg version="1.2" baseProfile="tiny" xmlns="http://www.w3.org/2000/svg" viewBox="0 0 367.9 334">
  <path fill="#fff" d="M13.6 27.2h39L108 228c1.6 6 7 10 13.2 10h170.6c5.5 0 10.2-3.2 12.5-8.2L366.5 87c1.8-4.3 1.4-9-1.1-12.9A13.5 13.5 0 0 0 354 68H165.5c-7.5 0-13.6 6.1-13.6 13.6s6 13.6 13.6 13.6h167.7l-50.3 115.6H131.5L75.9 10C74.3 4 69 0 62.8 0H13.6C6.1 0 0 6.1 0 13.6s6.1 13.6 13.6 13.6zM108.3 333.7a30.9 30.9 0 1 0 0-61.8 30.9 30.9 0 0 0 0 61.8zm0 0M301 333.7h2.3c8.1-.7 15.6-4.4 21-10.7a30.7 30.7 0 0 0-25.3-51 30.9 30.9 0 0 0 2 61.7zm0 0"/>
</svg>