<svg version="1.2" baseProfile="tiny" xmlns="http://www.w3.org/2000/svg" viewBox="0 0 496 496"><style>path {fill: #bc5f0f}</style><path d="M176 40a8 8 0 1 1-16 0 8 8 0 0 1 16 0zm0 0M104 64h16v16h-16zM216 64h16v16h-16z"/><path d="M336 256V72a24 24 0 0 0-24-24h-53.8l-4-16h-39A40 40 0 0 0 176 0h-16a40 40 0 0 0-39.2 32h-39l-4 16H24A24 24 0 0 0 0 72v368a24 24 0 0 0 24 24h232v32h240V256H336zm144 48h-64v-32h64v32zm-128 16h48v32h-48v-32zm0-16v-32h48v32h-48zm-96 112H112v-64H48V96h17.8l-4 16h212.4l-4-16H288v160h-32v160zM96 404.7L59.3 368H96v36.7zM272 272h64v32h-64v-32zm40-208a8 8 0 0 1 8 8v184h-16V80h-37.8l-4-16H312zM136 48v-8a24 24 0 0 1 24-24h16a24 24 0 0 1 24 24v8h41.8l12 48H82.2l12-48H136zM24 448a8 8 0 0 1-8-8V72a8 8 0 0 1 8-8h49.8l-4 16H32v283.3l68.7 68.7H256v16H24zm376 32h-48v-32h48v32zm16 0v-48h-80v48h-64V320h64v48h80v-48h64v160h-64zm0 0"/><path d="M144 144h-.6l7.4-11.8-13.6-8.4-12.6 20.2H64v80h80v-80zm-64 64v-48h34.6l-12 19.2-9-8.9-11.3 11.4 23.2 23 22.5-36V208H80zm0 0M144 256h-.6l7.4-11.8-13.6-8.4-12.6 20.2H64v80h80v-80zm-64 64v-48h34.6l-12 19.2-9-8.9-11.3 11.4 23.2 23 22.5-36V320H80zm0 0M160 144h112v16H160zM160 176h112v16H160zM160 208h112v16H160zM160 256h80v16h-80zM160 288h80v16h-80zM160 320h80v16h-80zM128 400h112v-48H128v48zm16-32h80v16h-80v-16zm0 0"/></svg>