<svg version="1.2" baseProfile="tiny" xmlns="http://www.w3.org/2000/svg" viewBox="0 0 496 496"><style>path {fill: #bc5f0f}</style><path d="M476.8 406.8l11.2-15c5.2-6.8 8-15.3 8-24v-118c0-11.6-7.4-21.5-18-24.2-4.7-1.2-9.6-1-14 .8v-24.7c0-12.1-8.6-22.7-20-24.5h-.5A207.6 207.6 0 0 0 152 63.4V48h16V0H8v48h16v26.8c0 5.1-1.7 10.2-4.8 14.4L8 104.2c-5.2 6.8-8 15.3-8 24v118c0 11.6 7.4 21.5 18 24.2 4.7 1.2 9.6 1 14-.8v24.7c0 12.1 8.6 22.7 20 24.5h.5A207.6 207.6 0 0 0 344 432.5V448h-16v48h160v-48h-16v-26.8c0-5.1 1.7-10.2 4.8-14.4zm-84.3-225c-.2 0-.3.2-.5.3l-.5-.4a24.1 24.1 0 0 0-19.5-5.4c-5.2.9-9.8 3.6-13.3 7.5-4.3-7.3-9.3-14.1-14.8-20.4l45.4-45.4a191.4 191.4 0 0 1 38.3 62.4c-1 .7-2.2 1.3-3.1 2.2h-.1a23.1 23.1 0 0 0-12.4-6.3 24 24 0 0 0-19.5 5.4zm-321 131.6h.1c3.4 3.2 7.7 5.5 12.4 6.3 7 1.1 14.2-.8 19.5-5.4l.5-.4.5.4a24 24 0 0 0 19.5 5.4c5.2-.9 9.8-3.6 13.3-7.5 4.3 7.3 9.2 14.2 14.7 20.4L106.7 378a191.4 191.4 0 0 1-38.3-62.4c1-.7 2.2-1.3 3.1-2.2zm92 30.5c20.9 18.5 47.7 30 76.5 31.8v64c-46.4-2-89.2-20.3-122-50.4l45.4-45.4zm92.5 31.8c19.9-1.2 38.9-7 56-17v.5c0 9.2 3.2 18.1 9 25.3l17.6 21.5c2.1 2.5 3.6 5.6 4.4 8.8a191.6 191.6 0 0 1-87 25v-64.1zm56-101.5v65.6a112.2 112.2 0 0 1-168-50.4v-59.6a39 39 0 0 0 23.5 8h.8c8.7-.2 15.7-7.4 15.7-16v-65.6a111 111 0 0 1 64-20.2c45.5 0 87.1 28.3 104 70.5v59.7c-7-5.3-15.3-8.2-24.3-8-8.7.2-15.7 7.4-15.7 16zm20.5-122c-21-18.5-47.9-30-76.5-31.9v-64c46.4 2 89.2 20.3 122 50.4l-45.5 45.5zM240 120.3c-19.9 1.2-38.9 7-56 17v-.5c0-9.2-3.2-18.1-9-25.3l-17.6-21.4a24 24 0 0 1-4.4-8.8 191.4 191.4 0 0 1 87-25v64zM24 16h128v16H24V16zm24 278.3v-112H32v64c0 2.7-1.4 5.5-3.6 7.2a7.5 7.5 0 0 1-6.5 1.4c-3.4-.9-5.9-4.5-5.9-8.6V128c0-5.2 1.7-10.3 4.8-14.4l11.2-15c5.2-6.8 8-15.3 8-24V48h96v26.9a40 40 0 0 0 9 25.3l17.6 21.5c3.5 4.2 5.4 9.6 5.4 15.1v85a23 23 0 0 1-17-6.7c-4.5-4.5-7-10.4-7-16.8v-40h-16v132.6l-.6.2.6 1.4v2.6c0 4.3-2.9 8.2-6.6 8.8a8 8 0 0 1-9.4-7.9V182.3H96V296a8 8 0 0 1-9.4 7.9c-3.7-.6-6.6-4.5-6.6-8.8V182.3H64V295a8 8 0 0 1-9.4 8c-3.7-.7-6.6-4.5-6.6-8.8zM472 480H344v-16h128v16zm-112-32v-26.9a40 40 0 0 0-9-25.3l-17.6-21.5a24.1 24.1 0 0 1-5.4-15.1v-85c6.3-.4 12.4 2.3 17 6.7 4.5 4.5 7 10.4 7 16.8v40h16V201c0-4.3 2.9-8.2 6.6-8.8a8 8 0 0 1 9.4 7.9v113.7h16V200a8 8 0 0 1 9.4-7.9c3.7.6 6.6 4.5 6.6 8.8v112.8h16V200.9a8 8 0 0 1 9.4-8c3.7.7 6.6 4.5 6.6 8.8v112h16v-64c0-2.7 1.4-5.5 3.6-7.2 1.3-1 3.6-2.1 6.5-1.4 3.4.9 5.9 4.5 5.9 8.6V368c0 5.2-1.7 10.3-4.8 14.4l-11.2 15c-5.2 6.8-8 15.3-8 24V448h-96zm0 0"/><path d="M315 85.2l-6 14.8c11.6 4.8 22.7 11 33 18.5l9.3-13c-11.2-8.2-23.4-15-36.3-20.3zm0 0M278.5 90.9a157 157 0 0 1 15.2 3.7l4.6-15.3c-5.5-1.6-11.1-3-16.8-4.1l-3 15.7zm0 0"/></svg>