<?xml version="1.0" encoding="utf-8"?>
<!-- Generator: Adobe Illustrator 22.1.0, SVG Export Plug-In . SVG Version: 6.00 Build 0)  -->
<svg version="1.2" baseProfile="tiny" id="Layer_1" xmlns="http://www.w3.org/2000/svg" xmlns:xlink="http://www.w3.org/1999/xlink"
	 x="0px" y="0px" viewBox="-49 141 512 512" xml:space="preserve">
<g fill="#ced9e0" transform="translate(1 1)">
	<path d="M206,613.6c-18.773,0-34.133-15.36-34.133-34.133c0-18.773,15.36-34.133,34.133-34.133s34.133,15.36,34.133,34.133
		C240.133,598.24,224.773,613.6,206,613.6z M206,562.4c-9.387,0-17.067,7.68-17.067,17.067s7.68,17.067,17.067,17.067
		s17.067-7.68,17.067-17.067S215.387,562.4,206,562.4z"/>
	<path d="M197.467,564.107c-3.413,0-6.827-2.56-8.533-5.973l-76.8-240.64c-1.707-4.267,0.853-9.387,5.12-11.093
		c4.267-1.707,9.387,0.853,11.093,5.12l76.8,240.64c1.707,4.267-0.853,9.387-5.12,11.093
		C200.027,563.253,199.173,564.107,197.467,564.107z"/>
	<path d="M308.4,323.467c-3.413,0-6.827,0-11.093-0.853c-24.747-5.12-41.813-28.16-40.107-53.76
		c0.853-8.533,3.413-16.213,8.533-23.04c9.387-11.947,16.213-25.6,22.187-38.4l11.947-24.747c2.56-2.56,5.12-4.267,8.533-4.267l0,0
		c3.413,0,5.973,1.707,7.68,5.12l15.36,30.72l0,0c5.12,10.24,11.093,19.627,17.067,29.013l4.267,6.827
		c5.12,6.827,6.827,14.507,6.827,22.187c0,15.36-6.827,29.867-18.773,40.107C331.44,319.2,320.347,323.467,308.4,323.467z
		 M308.4,205.707l-4.267,9.387c-6.827,13.653-14.507,28.16-23.893,41.813c-3.413,4.267-5.12,8.533-5.12,13.653
		c-0.853,17.067,10.24,32.427,26.453,35.84c10.24,2.56,20.48,0,29.013-6.827c7.68-6.827,12.8-16.213,12.8-26.453
		c0-5.12-0.853-9.387-4.267-13.653l-5.12-7.68c-5.973-10.24-12.8-19.627-17.92-30.72L308.4,205.707z"/>
	<path d="M9.733,562.4c-1.707,0-2.56,0-4.267-0.853c-2.56-0.853-3.413-3.413-4.267-5.973l-46.933-250.027
		c-3.413-17.067,7.68-34.133,24.747-39.253l65.707-17.92c77.653-17.92,156.16-23.04,235.52-14.507c2.56,0,5.12,1.707,6.827,5.12
		c1.707,2.56,0.853,5.973-0.853,8.533c-2.56,3.413-4.267,6.827-6.827,10.24c-3.413,4.267-5.12,8.533-5.12,14.507
		c-0.853,16.213,11.093,31.573,26.453,34.987c10.24,2.56,20.48,0,29.013-6.827c7.68-6.827,12.8-16.213,12.8-26.453
		c0-5.12-1.707-10.24-5.12-15.36c-1.707-2.56-2.56-6.827-0.853-9.387c1.707-3.413,5.12-5.12,9.387-4.267
		c6.827,0,13.653,1.707,20.48,3.413l0,0l65.707,17.92c17.067,4.267,27.307,22.187,24.747,39.253L410.8,555.573
		c-0.853,2.56-1.707,4.267-4.267,5.973c-2.56,0.853-5.12,1.707-6.827,0.853c-124.587-44.373-261.973-44.373-386.56,0
		C11.44,562.4,10.587,562.4,9.733,562.4z M206,511.2c64,0,128,10.24,189.44,30.72l45.227-239.787
		c1.707-8.533-3.413-17.067-11.947-19.627l-65.707-17.92c-1.707,0-2.56-0.853-4.267-0.853c0.853,2.56,0.853,5.973,0.853,8.533
		c0,15.36-6.827,29.867-18.773,40.107c-11.947,9.387-27.307,13.653-43.52,10.24c-23.893-5.12-41.813-27.307-40.107-52.053
		c0-7.68,2.56-14.507,6.827-20.48c-72.533-5.973-144.213-0.853-215.04,15.36l-65.707,17.92c-8.533,2.56-13.653,11.093-11.947,19.627
		L16.56,542.773C78,522.293,142,511.2,206,511.2z"/>
</g>
</svg>
