<?xml version="1.0" encoding="utf-8"?>
<!-- Generator: Adobe Illustrator 22.1.0, SVG Export Plug-In . SVG Version: 6.00 Build 0)  -->
<svg version="1.2" baseProfile="tiny" id="Layer_1" xmlns="http://www.w3.org/2000/svg" xmlns:xlink="http://www.w3.org/1999/xlink"
	 x="0px" y="0px" viewBox="-49 141 512 512" xml:space="preserve">
<g fill="#ced9e0" transform="translate(1 1)">
	<path d="M368.133,208.267H43.867c-5.12,0-8.533-3.413-8.533-8.533v-51.2c0-5.12,3.413-8.533,8.533-8.533h324.267
		c5.12,0,8.533,3.413,8.533,8.533v51.2C376.667,204.853,373.253,208.267,368.133,208.267z M52.4,191.2h307.2v-34.133H52.4V191.2z"/>
	<path d="M334,617.867H78c-4.267,0-7.68-3.413-8.533-6.827l-8.533-51.2c0-2.56,0-5.12,1.707-6.827
		c1.707-1.707,4.267-3.413,6.827-3.413h273.067c2.56,0,5.12,0.853,6.827,3.413c1.707,1.707,2.56,4.267,1.707,6.827l-8.533,51.2
		C341.68,614.453,338.267,617.867,334,617.867z M84.827,600.8H326.32l5.973-34.133H79.707L84.827,600.8z"/>
	<path d="M351.067,652H60.933c-5.12,0-8.533-3.413-8.533-8.533v-34.133c0-5.12,3.413-8.533,8.533-8.533h290.133
		c5.12,0,8.533,3.413,8.533,8.533v34.133C359.6,648.587,356.187,652,351.067,652z M69.467,634.933h273.067v-17.067H69.467V634.933z"
		/>
	<path d="M427.867,566.667H-15.867c-5.12,0-8.533-3.413-8.533-8.533v-42.667c0-5.12,3.413-8.533,8.533-8.533h26.453L35.333,198.88
		c0-4.267,4.267-7.68,8.533-7.68h42.667c2.56,0,4.267,0.853,5.973,2.56c1.707,1.707,2.56,4.267,2.56,6.827L70.32,506.933h41.813
		v-307.2c0-5.12,3.413-8.533,8.533-8.533h51.2c5.12,0,8.533,3.413,8.533,8.533v307.2h51.2v-307.2c0-5.12,3.413-8.533,8.533-8.533
		h51.2c5.12,0,8.533,3.413,8.533,8.533v307.2h41.813l-24.747-306.347c0-2.56,0.853-5.12,2.56-6.827
		c1.707-1.707,3.413-2.56,5.973-2.56h42.667c4.267,0,8.533,3.413,8.533,7.68l24.747,308.053h26.453c5.12,0,8.533,3.413,8.533,8.533
		v42.667C436.4,563.253,432.987,566.667,427.867,566.667z M-7.333,549.6h426.667V524h-25.6c-4.267,0-8.533-3.413-8.533-7.68
		l-24.747-308.053h-25.6L359.6,514.613c0,2.56-0.853,5.12-2.56,6.827c-1.707,1.707-3.413,2.56-5.973,2.56h-59.733
		c-5.12,0-8.533-3.413-8.533-8.533v-307.2h-34.133v307.2c0,5.12-3.413,8.533-8.533,8.533h-68.267c-5.12,0-8.533-3.413-8.533-8.533
		v-307.2H129.2v307.2c0,5.12-3.413,8.533-8.533,8.533H60.933c-2.56,0-4.267-0.853-5.973-2.56c-1.707-1.707-2.56-4.267-2.56-6.827
		l24.747-306.347h-25.6L26.8,516.32c0,4.267-4.267,7.68-8.533,7.68h-25.6V549.6z"/>
</g>
</svg>
