<?xml version="1.0" encoding="utf-8"?>
<!-- Generator: Adobe Illustrator 22.1.0, SVG Export Plug-In . SVG Version: 6.00 Build 0)  -->
<svg version="1.2" baseProfile="tiny" id="Layer_1" xmlns="http://www.w3.org/2000/svg" xmlns:xlink="http://www.w3.org/1999/xlink"
	 x="0px" y="0px" viewBox="-49 141 512 512" xml:space="preserve">
<g fill="#ced9e0" transform="translate(1 1)">
	<path d="M265.733,652H146.267c-98.987,0-179.2-115.2-179.2-256s80.213-256,179.2-256h119.467c98.987,0,179.2,115.2,179.2,256
		S364.72,652,265.733,652z M146.267,157.067c-89.6,0-162.133,107.52-162.133,238.933s72.533,238.933,162.133,238.933h119.467
		c89.6,0,162.133-107.52,162.133-238.933s-72.533-238.933-162.133-238.933H146.267z"/>
	<path d="M275.12,652C274.267,652,274.267,652,275.12,652c-87.04-7.68-154.453-119.467-154.453-256
		c0-135.68,67.413-248.32,153.6-256c0.853,0,0.853,0,1.707,0c93.867,7.68,168.107,119.467,168.96,254.293V396
		c0,17.067-1.707,34.133-3.413,50.347C425.307,561.547,357.04,645.173,275.12,652L275.12,652z M275.12,157.067
		c-76.8,7.68-137.387,111.787-137.387,238.933s59.733,231.253,137.387,238.933c73.387-5.973,134.827-84.48,150.187-190.293
		c1.707-16.213,3.413-32.427,3.413-48.64l8.533-0.853l-8.533-0.853C427.013,268,360.453,164.747,275.12,157.067z"/>
	<path d="M282.8,583.733c-57.173,0-102.4-82.773-102.4-187.733s45.227-187.733,102.4-187.733S385.2,291.04,385.2,396
		S339.973,583.733,282.8,583.733z M282.8,225.333c-46.08,0-85.333,78.507-85.333,170.667S236.72,566.667,282.8,566.667
		S368.133,488.16,368.133,396S328.88,225.333,282.8,225.333z"/>
	<path d="M208.56,514.613c-0.853,0-0.853,0-1.707,0c-2.56-0.853-5.12-2.56-5.973-5.12C187.227,476.213,180.4,436.96,180.4,396
		s6.827-80.213,20.48-113.493c0.853-2.56,3.413-4.267,5.973-5.12c2.56-0.853,5.973,0,7.68,2.56
		c20.48,20.48,34.133,65.707,34.133,116.053s-13.653,95.573-34.133,116.053C212.827,513.76,211.12,514.613,208.56,514.613z
		 M211.12,302.987c-9.387,27.307-13.653,59.733-13.653,93.013s5.12,64.853,13.653,93.013c12.8-21.333,20.48-55.467,20.48-93.013
		S223.92,324.32,211.12,302.987z"/>
	<path d="M-15.013,344.8c-2.56,0-4.267-0.853-5.973-2.56c-3.413-3.413-3.413-8.533,0-11.947l24.747-25.6
		c1.707-1.707,3.413-2.56,5.973-2.56l0,0c2.56,0,4.267,0.853,5.973,2.56l19.627,19.627l19.627-19.627
		c3.413-3.413,8.533-3.413,11.947,0l19.627,19.627l19.627-19.627c3.413-3.413,8.533-3.413,11.947,0l17.067,17.067
		c3.413,3.413,3.413,8.533,0,11.947c-3.413,3.413-8.533,3.413-11.947,0l-11.093-11.093L92.507,342.24
		c-3.413,3.413-8.533,3.413-11.947,0l-19.627-19.627L41.307,342.24c-3.413,3.413-8.533,3.413-11.947,0L9.733,322.613L-9.04,342.24
		C-10.747,343.947-13.307,344.8-15.013,344.8z"/>
	<path d="M-7.333,481.333c-1.707,0-3.413-0.853-5.12-1.707c-4.267-2.56-5.12-7.68-2.56-11.947l17.067-25.6
		c1.707-1.707,4.267-3.413,6.827-3.413s5.12,0.853,6.827,2.56l19.627,19.627l19.627-19.627c3.413-3.413,8.533-3.413,11.947,0
		l19.627,19.627l19.627-19.627c2.56-2.56,7.68-3.413,11.093-0.853l22.187,18.773c4.267,2.56,5.12,7.68,2.56,11.947
		s-7.68,5.12-11.947,2.56l-16.213-14.507l-20.48,20.48c-3.413,3.413-8.533,3.413-11.947,0l-20.48-20.48l-19.627,19.627
		c-3.413,3.413-8.533,3.413-11.947,0l-17.92-17.92L0.347,477.92C-2.213,479.627-4.773,481.333-7.333,481.333z"/>
	<path d="M103.6,549.6c-2.56,0-4.267-0.853-5.973-2.56L78,527.413L58.373,547.04c-3.413,3.413-8.533,3.413-11.947,0L26.8,527.413
		l-11.093,11.093c-3.413,3.413-8.533,3.413-11.947,0c-3.413-3.413-3.413-8.533,0-11.947l17.067-17.067
		c3.413-3.413,8.533-3.413,11.947,0L52.4,529.12l19.627-19.627c3.413-3.413,8.533-3.413,11.947,0l17.92,17.92l11.093-17.067
		c2.56-3.413,6.827-5.12,11.093-2.56l34.133,17.067c4.267,1.707,5.973,6.827,3.413,11.093c-1.707,4.267-6.827,5.973-11.093,3.413
		l-27.307-13.653l-12.8,19.627C109.573,547.893,107.013,549.6,103.6,549.6C104.453,549.6,103.6,549.6,103.6,549.6z"/>
	<path d="M52.4,609.333c-2.56,0-5.12-1.707-6.827-3.413c-2.56-4.267-1.707-9.387,2.56-11.947l25.6-17.067
		c2.56-1.707,6.827-1.707,9.387,0l20.48,13.653l20.48-13.653c2.56-1.707,6.827-1.707,9.387,0l20.48,13.653l20.48-13.653
		c4.267-2.56,9.387-1.707,11.947,2.56s1.707,9.387-2.56,11.947l-25.6,17.067c-2.56,1.707-6.827,1.707-9.387,0L129.2,593.973
		l-20.48,13.653c-2.56,1.707-6.827,1.707-9.387,0L78,593.973l-20.48,13.653C55.813,608.48,54.107,609.333,52.4,609.333z"/>
	<path d="M146.267,276.533c-0.853,0-2.56,0-3.413-0.853l-29.867-14.507L91.653,275.68c-2.56,1.707-6.827,1.707-9.387,0
		l-21.333-14.507l-20.48,13.653c-2.56,1.707-6.827,1.707-9.387,0l-25.6-17.067c-4.267-2.56-5.12-7.68-2.56-11.947
		c2.56-4.267,7.68-5.12,11.947-2.56l20.48,14.507l20.48-13.653c2.56-1.707,6.827-1.707,9.387,0l20.48,13.653l20.48-13.653
		c2.56-1.707,5.973-1.707,8.533-0.853l34.133,17.067c4.267,1.707,5.973,6.827,3.413,11.093
		C152.24,274.827,149.68,276.533,146.267,276.533z"/>
	<path d="M129.2,413.067c-1.707,0-3.413,0-4.267-0.853L88.24,390.027l-20.48,20.48c-3.413,3.413-8.533,3.413-11.947,0l-20.48-19.627
		l-19.627,19.627c-2.56,2.56-6.827,3.413-10.24,1.707l-33.28-18.773c-4.267-1.707-5.973-6.827-3.413-11.093
		c1.707-4.267,6.827-5.973,11.093-3.413l28.16,16.213l21.333-21.333c3.413-3.413,8.533-3.413,11.947,0l19.627,19.627l19.627-19.627
		c2.56-2.56,6.827-3.413,10.24-1.707l42.667,25.6c4.267,2.56,5.12,7.68,2.56,11.947C135.173,411.36,131.76,413.067,129.2,413.067z"
		/>
	<path d="M35.333,216.8c-3.413,0-6.827-2.56-8.533-5.973c-0.853-5.12,1.707-9.387,5.973-11.093l59.733-17.067
		c2.56,0,5.12,0,7.68,1.707l20.48,13.653l20.48-13.653c2.56-1.707,5.973-1.707,8.533-0.853l34.133,17.067
		c4.267,1.707,5.973,6.827,3.413,11.093c-1.707,4.267-6.827,5.973-11.093,3.413l-29.867-14.507l-21.333,14.507
		c-2.56,1.707-6.827,1.707-9.387,0L93.36,200.587L37.893,216.8C37.04,216.8,36.187,216.8,35.333,216.8z"/>
</g>
</svg>
