<svg version="1.2" baseProfile="tiny" xmlns="http://www.w3.org/2000/svg" viewBox="0 0 512 512">
  <style>
    path {
      fill: #d4dee4;
    }
  </style>
  <path d="M256 512a256 256 0 1 0 0-512 256 256 0 0 0 0 512zm0-495a239 239 0 1 1 0 478 239 239 0 0 1 0-478zm0 0"/>
  <path d="M256 469.3a213.3 213.3 0 1 0 0-426.6 213.3 213.3 0 0 0 0 426.6zM66.3 306.5l52.6-14a68.3 68.3 0 0 1 85.9 65.9v87a197 197 0 0 1-138.5-139zM222 449.2v-90.8A85.3 85.3 0 0 0 114.5 276l-51.8 13.8c-3.8-21.5-4-43.4-.5-65 40.5-14.5 115.5-37 193.8-37s153.3 22.5 193.8 37c3.5 21.6 3.3 43.5-.5 65L397.5 276A85.3 85.3 0 0 0 290 358.4v90.8c-22.5 4-45.7 4-68.2 0zm85.3-3.8v-87a68.3 68.3 0 0 1 85.9-66l52.6 14a197 197 0 0 1-138.5 139zM256 59.7c88.8.2 166.5 59.8 189.6 145.6-61-21.6-125-33.2-189.6-34.6a607.3 607.3 0 0 0-189.6 34.6A196.6 196.6 0 0 1 256 59.7zm0 0"/>
  <path d="M315.7 256a59.7 59.7 0 1 0-119.4 0 59.7 59.7 0 0 0 119.4 0zm-102.4 0a42.7 42.7 0 1 1 85.4 0 42.7 42.7 0 0 1-85.4 0zm0 0"/>
  <path d="M281.6 256a25.6 25.6 0 1 0-51.2 0 25.6 25.6 0 0 0 51.2 0zm-34.1 0a8.5 8.5 0 1 1 17 0 8.5 8.5 0 0 1-17 0zm0 0"/>
</svg>