<svg version="1.2" baseProfile="tiny" xmlns="http://www.w3.org/2000/svg" viewBox="0 0 512 512">
  <path fill="#d4dee4" d="M312.4 226.3l66.7 47.5c3 2 6.9 2 9.8 0l66.7-47.5a52.7 52.7 0 0 0 22.3-42.8v-101c0-3.3-2-6.4-5.2-7.8L387.4 38c-2.1-1-4.6-1-6.7 0l-85.4 36.8a8.5 8.5 0 0 0-5.1 7.9v101c0 17 8.3 32.9 22.2 42.7zm-5.2-138.1L384 55l76.8 33.2v95.3c0 11.6-5.7 22.3-15.1 29L384 256.4l-61.7-44a35.6 35.6 0 0 1-15.1-28.9V88.2zm0 0"/>
  <path fill="none" d="M292.6 254.1a87 87 0 0 1-36.6-70.6v-4.3h-59.7a17 17 0 0 1-17.1-17V145a17 17 0 0 1 17-17.1H222v-17h-95a25.6 25.6 0 0 0-24.1 17l-48 136.5h252.4l-14.6-10.4zM42.7 486.4c0 4.7 3.8 8.5 8.5 8.5h51.2c4.7 0 8.5-3.8 8.5-8.5v-34.1H42.7v34.1zM59.7 418.1h17.1v17.1H59.7z"/>
  <path fill="none" d="M196.3 145.1H256v17.1h-59.7zM238.9 110.9H256V128h-17.1zM349.9 349.9H401c4.7 0 8.5-3.9 8.5-8.6v-17c0-4.7-3.8-8.6-8.5-8.6h-34.2a25.6 25.6 0 0 0-25.6 25.6c0 4.7 3.9 8.6 8.6 8.6zM273 65.7v117.8c.2 22.6 11.1 43.7 29.5 56.7l81.5 58 81.5-58a69.8 69.8 0 0 0 29.4-56.7V65.7L384 17.8l-111 48zm167.5 38.6c3.7 3 4.3 8.3 1.4 12l-68.3 85.3a8.5 8.5 0 0 1-11.8 1.5l-34.1-25.6a8.5 8.5 0 0 1 10.2-13.7l27.5 20.7 63.1-78.9c3-3.7 8.4-4.3 12-1.3z"/>
  <path fill="none" d="M431.5 285.4l-21.2 15a25.6 25.6 0 0 1 16.4 23.9v17A25.6 25.6 0 0 1 401 367h-51.2a25.6 25.6 0 0 1-25.6-25.6A42.7 42.7 0 0 1 357 300l-25.8-18.4H42.7A25.6 25.6 0 0 0 17 307.2v128h25.6v-17a17 17 0 0 1 17-17.1h17.1a17 17 0 0 1 17 17v17.1H367v-17A17 17 0 0 1 384 401h17a17 17 0 0 1 17.1 17v17.1h25.6v-128c0-9-4.6-17.2-12.2-21.8z"/>
  <path fill="none" d="M384 418.1h17.1v17.1H384zM349.9 486.4c0 4.7 3.8 8.5 8.5 8.5h51.2c4.7 0 8.5-3.8 8.5-8.5v-34.1H350v34.1z"/>
  <path fill="#d4dee4" d="M338 163.8a8.5 8.5 0 0 0-10.3 13.7l34.1 25.6c3.7 2.8 9 2.1 11.8-1.5l68.3-85.3a8.5 8.5 0 1 0-13.4-10.7l-63.1 78.9-27.5-20.7z"/>
  <path fill="#d4dee4" d="M506.9 52.3L387.4.7a8.5 8.5 0 0 0-6.8 0L261.2 52.3a8.5 8.5 0 0 0-5.1 7.8V94H126.9c-18.1 0-34.2 11.4-40.2 28.4L36.4 265.2c-20.9 3-36.3 21-36.4 42v128a17 17 0 0 0 17 17h8.6v34.2A25.6 25.6 0 0 0 51.2 512h51.2a25.6 25.6 0 0 0 25.6-25.6v-34.1h204.8v34.1a25.6 25.6 0 0 0 25.6 25.6h51.2a25.6 25.6 0 0 0 25.6-25.6v-34.1h8.5a17 17 0 0 0 17.1-17.1v-128c0-12.4-5.4-24.1-14.8-32.2l29.4-20.9a87 87 0 0 0 36.6-70.6V60.1c0-3.4-2-6.4-5.1-7.8zm-268 58.6H256V128h-17v-17zm17.1 34.2v17h-59.7v-17H256zM102.8 128a25.6 25.6 0 0 1 24-17h95v17h-25.5a17 17 0 0 0-17.1 17v17.1a17 17 0 0 0 17 17.1H256v4.3a87 87 0 0 0 36.6 70.6l14.6 10.4H54.7l48-136.5zm8.1 358.4c0 4.7-3.8 8.5-8.5 8.5H51.2a8.5 8.5 0 0 1-8.5-8.5v-34.1h68.2v34.1zm-51.2-51.2v-17h17.1v17h-17zm358.4 51.2c0 4.7-3.8 8.5-8.5 8.5h-51.2a8.5 8.5 0 0 1-8.5-8.5v-34.1H418v34.1zM384 435.2v-17h17v17h-17zm59.7 0h-25.6v-17a17 17 0 0 0-17-17.1H384a17 17 0 0 0-17 17v17.1H93.8v-17A17 17 0 0 0 76.8 401h-17a17 17 0 0 0-17.1 17v17.1H17v-128a25.6 25.6 0 0 1 25.6-25.6h288.5L357 300a42.7 42.7 0 0 0-32.7 41.3 25.6 25.6 0 0 0 25.6 25.6H401a25.6 25.6 0 0 0 25.6-25.6v-17c0-10.6-6.5-20-16.4-23.8l21.2-15a25.2 25.2 0 0 1 12.2 21.7v128zM367 315.7h34.2c4.7 0 8.5 3.9 8.5 8.6v17c0 4.7-3.8 8.6-8.5 8.6h-51.2a8.5 8.5 0 0 1-8.6-8.6 25.6 25.6 0 0 1 25.6-25.6zm128-132.2c0 22.5-11 43.7-29.4 56.7l-81.5 58-81.5-58a69.8 69.8 0 0 1-29.4-56.7V65.7L384 17.8l111 48v117.7z"/>
  <path fill="#d4dee4" d="M153.6 128H139a25.7 25.7 0 0 0-24.1 17l-32 91.1a8.5 8.5 0 1 0 16 5.7l32-91a8.5 8.5 0 0 1 8.1-5.7h14.6a8.5 8.5 0 0 0 0-17.1zm0 0M59.7 367H111a25.6 25.6 0 0 0 25.6-25.7A42.7 42.7 0 0 0 94 298.7H59.7a25.6 25.6 0 0 0-25.6 25.6v17A25.6 25.6 0 0 0 59.7 367zm-8.5-42.7c0-4.7 3.8-8.6 8.5-8.6H94a25.6 25.6 0 0 1 25.6 25.6c0 4.7-3.9 8.6-8.6 8.6H59.7a8.5 8.5 0 0 1-8.5-8.6v-17zm0 0M170.7 418.1H290a17 17 0 0 0 17.1-17v-34.2a17 17 0 0 0-17-17H170.6a17 17 0 0 0-17.1 17v34.2a17 17 0 0 0 17 17zm0-51.2H290v34.2H170.7v-34.2zm0 0"/>
</svg>