<?xml version="1.0" encoding="UTF-8" standalone="no"?>
<!-- Generator: Adobe Illustrator 22.1.0, SVG Export Plug-In . SVG Version: 6.00 Build 0)  -->

<svg fill="#ced9e0"
   xmlns:dc="http://purl.org/dc/elements/1.1/"
   xmlns:cc="http://creativecommons.org/ns#"
   xmlns:rdf="http://www.w3.org/1999/02/22-rdf-syntax-ns#"
   xmlns:svg="http://www.w3.org/2000/svg"
   xmlns="http://www.w3.org/2000/svg"
   xmlns:sodipodi="http://sodipodi.sourceforge.net/DTD/sodipodi-0.dtd"
   xmlns:inkscape="http://www.inkscape.org/namespaces/inkscape"
   version="1.2"
   id="Layer_1"
   x="0px"
   y="0px"
   viewBox="-49 141 512 512"
   xml:space="preserve"
   sodipodi:docname="category-icon-8.svg"
   inkscape:version="0.92.1 r15371"><metadata
     id="metadata27"><rdf:RDF><cc:Work
         rdf:about=""><dc:format>image/svg+xml</dc:format><dc:type
           rdf:resource="http://purl.org/dc/dcmitype/StillImage" /></cc:Work></rdf:RDF></metadata><defs
     id="defs25" /><sodipodi:namedview
     pagecolor="#ffffff"
     bordercolor="#666666"
     borderopacity="1"
     objecttolerance="10"
     gridtolerance="10"
     guidetolerance="10"
     inkscape:pageopacity="0"
     inkscape:pageshadow="2"
     inkscape:window-width="1920"
     inkscape:window-height="1017"
     id="namedview23"
     showgrid="false"
     inkscape:zoom="0.921875"
     inkscape:cx="503.1792"
     inkscape:cy="163.35154"
     inkscape:window-x="-8"
     inkscape:window-y="-8"
     inkscape:window-maximized="1"
     inkscape:current-layer="Layer_1" /><g
     transform="matrix(1.0000039,0,0,1,1.0001953,1)"
     id="g20"><path
       d="m 363.013,332 c -2.56,0 -4.267,-0.853 -5.973,-2.56 l -84.48,-84.48 c -3.413,-3.413 -3.413,-8.533 0,-11.947 l 89.6,-90.453 c 1.707,-1.707 3.413,-2.56 5.973,-2.56 v 0 c 2.56,0 4.267,0.853 5.973,2.56 l 85.333,85.333 c 1.707,1.707 2.56,3.413 2.56,5.973 0,2.56 -0.853,4.267 -2.56,5.973 l -90.453,89.6 C 367.28,331.147 364.72,332 363.013,332 Z M 290.48,238.987 363.013,311.52 441.52,233.867 368.133,160.48 Z"
       id="path2"
       inkscape:connector-curvature="0" /><path
       d="m 43.867,652 c -2.56,0 -4.267,-0.853 -5.973,-2.56 l -85.333,-85.333 c -1.707,-1.707 -2.56,-3.413 -2.56,-5.973 0,-2.56 0.853,-4.267 2.56,-5.973 l 90.453,-89.6 c 3.413,-3.413 8.533,-3.413 11.947,0 l 84.48,84.48 c 3.413,3.413 3.413,8.533 0,11.947 l -89.6,90.453 C 48.133,651.147 46.427,652 43.867,652 Z M -29.52,558.133 43.867,631.52 121.52,553.013 48.987,480.48 Z"
       id="path4"
       inkscape:connector-curvature="0" /><path
       d="m 241.84,404.533 c -2.56,0 -4.267,-0.853 -5.973,-2.56 l -35.84,-35.84 c -1.707,-1.707 -2.56,-4.267 -2.56,-5.973 0,-2.56 0.853,-4.267 2.56,-5.973 l 23.893,-23.893 c 3.413,-3.413 8.533,-3.413 11.947,0 l 35.84,35.84 c 3.413,3.413 3.413,8.533 0,11.947 l -23.04,23.893 c -1.707,1.706 -4.267,2.559 -6.827,2.559 z m -23.893,-44.373 23.893,23.893 11.947,-11.947 -23.893,-23.893 z"
       id="path6"
       inkscape:connector-curvature="0" /><path
       d="m 151.387,579.467 c -2.56,0 -4.267,-0.853 -5.973,-2.56 L 25.094,456.587 c -3.413,-3.413 -3.413,-8.533 0,-11.947 l 84.48,-84.48 c 3.413,-3.413 8.533,-3.413 11.947,0 l 120.32,120.32 c 3.413,3.413 3.413,8.533 0,11.947 l -84.48,84.48 c -0.854,1.706 -3.414,2.56 -5.974,2.56 z M 43.013,450.613 151.386,558.986 223.919,486.453 115.547,378.08 Z"
       id="path8"
       inkscape:connector-curvature="0" /><path
       d="m 145.413,524.853 c -2.56,0 -4.267,-0.853 -5.973,-2.56 L 78.853,461.706 c -3.413,-3.413 -3.413,-8.533 0,-11.947 l 35.84,-35.84 c 3.413,-3.413 8.533,-3.413 11.947,0 l 60.587,60.587 c 3.413,3.413 3.413,8.533 0,11.947 l -35.84,35.84 c -1.707,1.707 -3.414,2.56 -5.974,2.56 z m -47.786,-68.266 48.64,48.64 23.893,-23.893 -48.64,-48.64 z"
       id="path10"
       inkscape:connector-curvature="0" /><path
       d="m 357.04,410.507 v 0 c -2.56,0 -4.267,-0.853 -5.973,-2.56 l -1.707,-1.707 c -14.507,-14.507 -27.307,-33.28 -39.253,-54.613 -5.12,-11.093 -14.507,-23.04 -25.6,-33.28 -11.093,-11.093 -23.04,-19.627 -33.28,-25.6 -22.187,-11.093 -40.107,-23.893 -54.613,-39.253 l -2.56,-2.56 c -3.413,-3.413 -3.413,-8.533 0,-11.947 l 17.92,-17.92 c 8.533,-8.533 18.773,-12.8 29.867,-12.8 11.093,0 22.187,4.267 29.867,12.8 L 380.08,329.44 c 16.213,16.213 16.213,43.52 0,60.587 l -17.92,17.92 c -0.853,1.706 -3.413,2.56 -5.12,2.56 z M 211.973,244.96 c 12.8,11.947 28.16,22.187 46.08,31.573 11.947,5.973 25.6,16.213 37.547,29.013 11.947,11.947 22.187,25.6 29.013,37.547 9.387,18.773 19.627,33.28 31.573,46.08 l 11.947,-11.947 c 10.24,-10.24 10.24,-26.453 0,-35.84 L 260.613,233.013 c -9.387,-9.387 -26.453,-9.387 -35.84,0 v 0 z m 5.974,-17.92 v 0 z"
       id="path12"
       inkscape:connector-curvature="0" /><path
       d="m 154.8,259.467 h -42.667 v 0 c -1.707,0 -4.267,-0.853 -5.973,-1.707 -0.853,0 -0.853,-0.853 -0.853,-0.853 -0.853,-1.707 -1.707,-2.56 -1.707,-4.267 v -0.853 -43.52 c 0,-5.12 3.413,-8.533 8.533,-8.533 5.12,0 8.533,3.413 8.533,8.533 v 22.187 l 53.76,-53.76 c 3.413,-3.413 8.533,-3.413 11.947,0 3.413,3.413 3.413,8.533 0,11.947 l -53.76,53.76 H 154.8 c 5.12,0 8.533,3.413 8.533,8.533 0,5.119 -3.413,8.533 -8.533,8.533 z"
       id="path14"
       inkscape:connector-curvature="0" /><path
       d="m 231.6,617.867 c -2.56,0 -4.267,-0.853 -5.973,-2.56 -3.413,-3.413 -3.413,-8.533 0,-11.947 l 53.76,-53.76 H 257.2 c -5.12,0 -8.533,-3.413 -8.533,-8.533 0,-5.12 3.413,-8.533 8.533,-8.533 h 42.667 v 0 0 c 1.707,0 4.267,0.853 5.973,1.707 0.853,0 0.853,0.853 0.853,0.853 0.853,1.707 1.707,2.56 1.707,4.267 v 0.853 42.667 c 0,5.12 -3.413,8.533 -8.533,8.533 -5.12,0 -8.533,-3.413 -8.533,-8.533 v -22.187 l -53.76,53.76 c -1.707,2.559 -3.414,3.413 -5.974,3.413 z"
       id="path16"
       inkscape:connector-curvature="0" /><path
       d="m 241.84,445.493 c -6.827,0 -12.8,-2.56 -17.92,-7.68 l -60.587,-60.587 c -10.24,-10.24 -10.24,-26.453 0,-35.84 L 198.32,306.4 c 8.533,-8.533 11.093,-22.187 5.12,-33.28 l -11.947,-23.893 c -1.707,-3.413 -0.853,-8.533 2.56,-11.093 3.413,-2.56 7.68,-1.707 11.093,0.853 l 1.707,1.707 c 13.653,13.653 29.867,25.6 50.347,35.84 11.947,5.973 25.6,16.213 37.547,29.013 11.947,11.947 22.187,25.6 29.013,37.547 v 0 c 10.24,20.48 22.187,36.693 35.84,50.347 l 1.707,1.707 c 2.56,2.56 3.413,7.68 0.853,11.093 -2.56,3.413 -6.827,4.267 -11.093,2.56 l -23.893,-11.947 c -11.093,-5.973 -24.747,-3.413 -33.28,5.12 l -34.987,34.987 c -3.414,5.972 -10.24,8.532 -17.067,8.532 z M 223.067,275.68 c 3.413,15.36 -0.853,31.573 -11.947,42.667 l -34.987,34.987 c -3.413,3.413 -3.413,8.533 0,11.947 l 60.587,60.587 c 3.413,3.413 8.533,3.413 11.947,0 l 34.987,-34.987 c 11.093,-11.093 27.307,-16.213 42.667,-11.947 -5.973,-8.533 -11.093,-17.067 -16.213,-27.307 v 0 c -5.12,-11.093 -14.507,-23.04 -25.6,-33.28 -11.093,-11.093 -23.04,-19.627 -33.28,-25.6 -10.241,-5.974 -19.628,-11.094 -28.161,-17.067 z"
       id="path18"
       inkscape:connector-curvature="0" /></g></svg>