<?xml version="1.0" encoding="utf-8"?>
<!-- Generator: Adobe Illustrator 22.1.0, SVG Export Plug-In . SVG Version: 6.00 Build 0)  -->
<svg version="1.2" baseProfile="tiny" id="Layer_1" xmlns="http://www.w3.org/2000/svg" xmlns:xlink="http://www.w3.org/1999/xlink"
	 x="0px" y="0px" viewBox="-49 141 512 512" xml:space="preserve">
<g fill="#ced9e0" transform="translate(1 1)">
	<path d="M453.467,566.667h-34.133c-3.413,0-5.973-1.707-7.68-5.12l-23.04-46.08H364.72l-23.04,46.08
		c-1.707,3.413-4.267,5.12-7.68,5.12H95.067c-2.56,0-5.12-1.707-6.827-3.413l-31.573-47.787h-64c-5.12,0-8.533-3.413-8.533-8.533
		V370.4c0-5.12,3.413-8.533,8.533-8.533H52.4v-25.6c0-2.56,0.853-4.267,2.56-5.973s3.413-2.56,5.973-2.56h230.4
		c5.12,0,8.533,3.413,8.533,8.533v25.6H334c3.413,0,5.973,1.707,7.68,4.267l23.04,38.4h23.04l23.893-70.827
		c0.853-3.413,4.267-5.973,7.68-5.973h34.133c5.12,0,8.533,3.413,8.533,8.533v221.867C462,563.253,458.587,566.667,453.467,566.667z
		 M424.453,549.6h20.48V344.8h-19.627l-23.893,70.827c-0.853,3.413-4.267,5.973-7.68,5.973H359.6c-3.413,0-5.973-1.707-7.68-4.267
		l-23.04-38.4h-37.547c-5.12,0-8.533-3.413-8.533-8.533v-25.6H69.467v25.6c0,2.56-0.853,4.267-2.56,5.973
		c-1.707,1.707-3.413,2.56-5.973,2.56H1.2V498.4h59.733c2.56,0,5.12,1.707,6.827,3.413L99.333,549.6h228.693l23.04-46.08
		c1.707-2.56,4.267-5.12,7.68-5.12h34.133c3.413,0,5.973,1.707,7.68,5.12L424.453,549.6z"/>
	<path d="M-7.333,438.667h-34.133c-5.12,0-8.533-3.413-8.533-8.533c0-5.12,3.413-8.533,8.533-8.533h34.133
		c5.12,0,8.533,3.413,8.533,8.533C1.2,435.253-2.213,438.667-7.333,438.667z"/>
	<path d="M-41.467,472.8c-5.12,0-8.533-3.413-8.533-8.533V396c0-5.12,3.413-8.533,8.533-8.533s8.533,3.413,8.533,8.533v68.267
		C-32.933,469.387-36.347,472.8-41.467,472.8z"/>
	<path d="M257.2,293.6H103.6c-5.12,0-8.533-3.413-8.533-8.533v-51.2c0-5.12,3.413-8.533,8.533-8.533h153.6
		c5.12,0,8.533,3.413,8.533,8.533v51.2C265.733,290.187,262.32,293.6,257.2,293.6z M112.133,276.533h136.533V242.4H112.133V276.533z
		"/>
	<path d="M223.067,344.8h-85.333c-5.12,0-8.533-3.413-8.533-8.533v-51.2c0-5.12,3.413-8.533,8.533-8.533h85.333
		c5.12,0,8.533,3.413,8.533,8.533v51.2C231.6,341.387,228.187,344.8,223.067,344.8z M146.267,327.733h68.267V293.6h-68.267V327.733z
		"/>
	<path d="M60.933,515.467H-7.333c-5.12,0-8.533-3.413-8.533-8.533V370.4c0-5.12,3.413-8.533,8.533-8.533h68.267
		c5.12,0,8.533,3.413,8.533,8.533v136.533C69.467,512.053,66.053,515.467,60.933,515.467z M1.2,498.4h51.2V378.933H1.2V498.4z"/>
	<path d="M393.733,515.467H359.6c-5.12,0-8.533-3.413-8.533-8.533v-93.867c0-5.12,3.413-8.533,8.533-8.533h34.133
		c5.12,0,8.533,3.413,8.533,8.533v93.867C402.267,512.053,398.853,515.467,393.733,515.467z M368.133,498.4H385.2v-76.8h-17.067
		V498.4z"/>
</g>
</svg>
