<svg xmlns="http://www.w3.org/2000/svg" version="1.2" viewBox="0 0 409.6 409.6">
  <g fill="#d4dee4">
    <path d="M268.8 268.8a8 8 0 1 0 0 16 8 8 0 0 0 0-16zm-108.8-8a8 8 0 0 1 0-16c2.8 0 5.8 1.4 8.7 4.2a8 8 0 1 0 11-11.5A31 31 0 0 0 168 230v-9.3a8 8 0 0 0-16 0v9.4a24 24 0 0 0 8 46.6 8 8 0 0 1 0 16c-3.4 0-7.1-2.2-10.4-6a8 8 0 0 0-12.2 10.2 33 33 0 0 0 14.6 10.5v9.3a8 8 0 0 0 16 0v-9.4a24 24 0 0 0-8-46.6zm-64-128a8 8 0 0 0 8-8v-32a8 8 0 0 0-16 0v32a8 8 0 0 0 8 8zm0 0"/>
    <path d="M377.6 188.8v-64c0-22-18-40-40-40h-44.8V24a24 24 0 0 0-24-24H120a24 24 0 0 0-24 24v28.8H72a24 24 0 0 0-24 24v8h-8c-22 0-40 18-40 40v244.8c0 22 18 40 40 40h244.8a40 40 0 0 0 39.2-32h13.6c22 0 40-18 40-40v-20.8h8a24 24 0 0 0 24-24v-72a32 32 0 0 0-32-32zm16 32a16 16 0 0 1-16 16v-32a16 16 0 0 1 16 16zm-56-120a24 24 0 0 1 24 24v112h-36.8v-48a40 40 0 0 0-32-39.2v-48.8h44.8zM112 24a8 8 0 0 1 8-8h148.8a8 8 0 0 1 8 8v124.8H240v-72a24 24 0 0 0-24-24H112V24zm80 124.8v-80h24a8 8 0 0 1 8 8v72h-32zm-48 0v-80h32v80h-32zm-80-72a8 8 0 0 1 8-8h56v80H64v-72zm-24 24h8v48h-6.3c-13.2 0-25.7-9.6-25.7-24a24 24 0 0 1 24-24zm244.8 292.8H40a24 24 0 0 1-24-24V156.3a43 43 0 0 0 25.7 8.5h243.1a24 24 0 0 1 24 24v48h-56a24 24 0 0 0-24 24v32a24 24 0 0 0 24 24h56v52.8a24 24 0 0 1-24 24zm76.8-56a24 24 0 0 1-24 24h-12.8v-44.8h36.8v20.8zm24-36.8H252.8a8 8 0 0 1-8-8v-32a8 8 0 0 1 8-8h124.8c5.7 0 11.2-1.5 16-4.3v44.3a8 8 0 0 1-8 8zm0 0"/>
    <path d="M337.6 268.8h-36.8a8 8 0 0 0 0 16h36.8a8 8 0 0 0 0-16zm0 0"/>
  </g>
</svg>