<svg xmlns="http://www.w3.org/2000/svg" version="1.2" viewBox="0 0 496 496">
  <path fill="#d4dee4" d="M442 241.5V192C442 86.1 355.9 0 250 0S58 86.1 58 192v49.5A24 24 0 0 0 42 264v128a24 24 0 0 0 24 24h48a8 8 0 0 0 8-8v-8h8a24 24 0 0 0 24-24v-96a24 24 0 0 0-24-24h-8v-8a8 8 0 0 0-8-8h-8v-48c0-79.4 64.6-144 144-144s144 64.6 144 144v48h-8a8 8 0 0 0-8 8v8h-8a24 24 0 0 0-24 24v96a24 24 0 0 0 24 24h8v8a8 8 0 0 0 8 8h48c2.6 0 5-.5 7.3-1.3A40 40 0 0 1 402 448H289.2a40 40 0 1 0 0 16H402a56 56 0 0 0 56-56V264a24 24 0 0 0-16-22.5zM130 272a8 8 0 0 1 8 8v96a8 8 0 0 1-8 8h-8V272zm240 112a8 8 0 0 1-8-8v-96a8 8 0 0 1 8-8h8v112zm-120 96a24 24 0 1 1 0-48 24 24 0 0 1 0 48zm-144-80H66a8 8 0 0 1-8-8V264a8 8 0 0 1 8-8h40zM250 32c-88.2 0-160 71.8-160 160v48H74v-48c0-97 79-176 176-176s176 79 176 176v48h-16v-48c0-88.2-71.8-160-160-160zm192 360a8 8 0 0 1-8 8h-40V256h40a8 8 0 0 1 8 8zm0 0"/>
  <path fill="#d4dee4" d="M238.6 382.6a8 8 0 0 0 3.4-6.6v-44.4l8-8.4 8 8.4V376a8 8 0 0 0 10.8 7.5 58.5 58.5 0 0 0 37.2-55.1 58.8 58.8 0 0 0-32-52.8V172.4a58.8 58.8 0 0 0 32-52.8c0-24.7-15-46.8-37.2-55.1A8 8 0 0 0 258 72v44.4l-8 8.4-8-8.4V72a8 8 0 0 0-10.8-7.5 58.5 58.5 0 0 0-37.2 55.1 58.8 58.8 0 0 0 32 52.8v103.2a58.8 58.8 0 0 0-32 52.8c0 24.7 15 46.8 37.2 55.1a8 8 0 0 0 7.4-1zM226 328.4v34a43.5 43.5 0 0 1-16-34c0-18 10.8-34 26.8-40a8 8 0 0 0 5.2-7.6V167.2a8 8 0 0 0-5.2-7.6c-16-6-26.8-22-26.8-40 0-13.6 6.1-26.1 16-34v34c0 2 .8 4 2.2 5.5l16 16.8c3 3.2 8.6 3.2 11.6 0l16-16.8a8 8 0 0 0 2.2-5.5v-34c9.9 7.9 16 20.4 16 34 0 18-10.8 34-26.8 40a8 8 0 0 0-5.2 7.6v113.7a8 8 0 0 0 5.2 7.5c16 6 26.8 22 26.8 40 0 13.6-6.1 26.1-16 34v-34c0-2-.8-4-2.2-5.5l-16-16.8a8 8 0 0 0-11.6 0l-16 16.8a8 8 0 0 0-2.2 5.5zm0 0"/>
</svg>