<svg version="1.2" baseProfile="tiny" xmlns="http://www.w3.org/2000/svg" viewBox="0 0 496 496"><style>path {fill: #bc5f0f}</style><path d="M452.2 335.8L352 313.6v-16a88.4 88.4 0 0 0 33.9-41.6H408a32 32 0 0 0 32-32v-56c0-11.8-6.5-22-16-27.6v-35a43 43 0 0 0-26.2-39.6l-2-3.8A112 112 0 0 0 184 112v28.4a31.9 31.9 0 0 0-15.9 27.6v56a32 32 0 0 0 32 32h22.1a88.4 88.4 0 0 0 33.9 41.7v15.9l-100.2 22.2a55.7 55.7 0 0 0-43.8 54.7V496h384V390.5c0-26.4-18-49-43.8-54.7zm-93.3-4.3l-12 47.5-30.3-20.2 30-30 12.3 2.7zM294.6 416h18.8l12.8 64h-44.4l12.8-64zm19.2-16h-19.6l-5-20.5 14.8-9.9 14.9 10-5.1 20.4zM424 224a16 16 0 0 1-16 16h-17.5c1-5.2 1.5-10.5 1.5-16v-72h16a16 16 0 0 1 16 16v56zM200 112a96 96 0 0 1 181.5-42.9l4.8 9.6 3.2 1a27 27 0 0 1 18.5 25.8V136h-16v-24h-16v18.9c-6 3-12.5 4.7-19.2 5 3.7-3.4 7-7.2 9.9-11.5l-13.4-8.8a45.7 45.7 0 0 1-36.5 20.3 62 62 0 0 0 9.9-11.5l-13.4-8.8a45.7 45.7 0 0 1-36.5 20.3 62 62 0 0 0 9.9-11.5l-13.4-8.8a45.8 45.8 0 0 1-38.1 20.4H232v-24h-16v24h-16v-24zm0 128a16 16 0 0 1-16-16v-56a16 16 0 0 1 16-16h16v72c0 5.5.6 10.8 1.5 16H200zm32-16v-72h3.2c10.2 0 20-2.5 28.8-7.1v7.1h11.2c10.2 0 20-2.5 28.8-7.1v7.1h11.2c10.2 0 20-2.5 28.8-7.1v7.1h11.2c7.1 0 14.1-1.4 20.8-3.8V224c0 5.5-.7 10.8-1.9 16h-39.6a24 24 0 0 0-22.5-16h-16a24 24 0 0 0 0 48h16a24 24 0 0 0 22.5-16h33.9A72 72 0 0 1 232 224zm88 24a8 8 0 0 1-8 8h-16a8 8 0 0 1 0-16h16a8 8 0 0 1 8 8zm-16 64c11.3 0 22-2.2 32-6.1v10.8l-32 32-32-32v-10.8c10 3.9 20.7 6.1 32 6.1zm-42.6 16.8l30 30L261 379l-11.9-47.5 12.3-2.7zM128 390.5c0-18.9 12.9-35 31.3-39l74.2-16.5 17.5 70 24-16 4.8 19.2-14.4 71.8H192v-88h-16v88h-48v-89.5zM480 480h-48v-88h-16v88h-73.4l-14.4-71.8L333 389l24 16 17.5-70 74.2 16.5a39.8 39.8 0 0 1 31.3 39V480zm0 0"/><path d="M360 176a8 8 0 1 1-16 0 8 8 0 0 1 16 0zm0 0M264 176a8 8 0 1 1-16 0 8 8 0 0 1 16 0zm0 0M32 32h80v16H32zM32 64h80v16H32z"/><path d="M120 141.5V112h24V0H0v112h66l54 29.5zM16 16h112v80h-24v18.5L70 96H16V16zm0 0M168 296H39l9-13.6V152a24 24 0 0 0-48 0v130.4L19.7 312H168v-16zM24 144a8 8 0 0 1 8 8v16H16v-16a8 8 0 0 1 8-8zm0 145.6l-8-12V184h16v93.6l-8 12zm0 0"/><path d="M152 264h16v16h-16zM64 264h72v16H64zM64 232h72v16H64zM120 200h16v16h-16zM64 200h40v16H64z"/></svg>