<svg version="1.2" baseProfile="tiny" xmlns="http://www.w3.org/2000/svg" viewBox="0 0 496 496"><style>path {fill: #bc5f0f}</style><path d="M451.3 40H368V24a24 24 0 0 0-24-24H136a24 24 0 0 0-24 24v139.4A88.1 88.1 0 0 0 48 248v48a32 32 0 0 0 26 31.4 64.1 64.1 0 0 0 30 40v18.2l-73 16.9a39.8 39.8 0 0 0-31 39V496h272v-54.5a39.8 39.8 0 0 0-31-39l-73-16.9v-18.3a64.1 64.1 0 0 0 30-40 32 32 0 0 0 26-31.3v-40.2a39.6 39.6 0 0 0 60.6-15.8h102.8a40 40 0 0 0 73.2 0H472a24 24 0 0 0 24-24V84.7L451.3 40zm-6.6 16L480 91.3V192h-32.2a39.6 39.6 0 0 0-47.6 0H368V56h76.7zM128 24a8 8 0 0 1 8-8h208a8 8 0 0 1 8 8v168h-80.2a39.6 39.6 0 0 0-59 13.3 88.5 88.5 0 0 0-26.4-29.3H336V32H144v128.4a88.9 88.9 0 0 0-16 0V24zm96 24h32v16h-32V48zm48 32V48h48v112h-48v-32h-64v32h-48V48h48v32h64zm-16 80h-32v-16h32v16zM64 296a16 16 0 0 1 8-13.8v27.6a16 16 0 0 1-8-13.8zm173.4 122a23.9 23.9 0 0 1 18.6 23.5V480h-48v-32h-16v32H80v-32H64v32H16v-38.5c0-11.3 7.6-20.9 18.6-23.4l74.1-17.1 27.3 36.3 27.3-36.3 74.1 17zM152 389.4l-16 21.4-16-21.4V374a63.6 63.6 0 0 0 32 0v15.4zm32-77.3a48 48 0 0 1-96 0v-38.1c0-6.4 2.9-12.3 7.7-16.3A128.9 128.9 0 0 0 168 280h16v32zm0-48h-16c-24 0-48-8-67.2-22.4l-4-3-4.4 2.2a36.7 36.7 0 0 0-19.2 24 32 32 0 0 0-9.2 3.6V248a72 72 0 0 1 144 0v20.4a31.3 31.3 0 0 0-8-3.3V248h-16v16zm16 45.8v-27.6a16 16 0 0 1 8 13.8 16 16 0 0 1-8 13.8zm48-61.8a24 24 0 1 1 0-48 24 24 0 0 1 0 48zm36.6-40H352v16h-64c0-5.7-1.2-11-3.4-16zm83.4 16v-16h19.4c-2.2 5-3.4 10.3-3.4 16h-16zm56 24a24 24 0 1 1 0-48 24 24 0 0 1 0 48zm48-24h-8c0-5.7-1.2-11-3.4-16H480v8a8 8 0 0 1-8 8zm0 0"/><path d="M432 224a8 8 0 1 1-16 0 8 8 0 0 1 16 0zm0 0M256 224a8 8 0 1 1-16 0 8 8 0 0 1 16 0zm0 0M464 136v-35.3L435.3 72H384v64h80zm-64-48h28.7l19.3 19.3V120h-48V88zm0 0M384 272a112.1 112.1 0 0 0 0 224 112.1 112.1 0 0 0 0-224zm0 208a96.1 96.1 0 0 1 0-192 96.1 96.1 0 0 1 0 192zm0 0"/><path d="M365.7 436L333 409.7l-10 12.4 47.3 37.9L438.9 340l-13.8-8-59.4 104zm0 0"/></svg>